<svg width="165" height="192" viewBox="0 0 165 192" fill="none" xmlns="http://www.w3.org/2000/svg">
<path d="M25.247 180.639H18.255L16.967 184.204H14.759L20.555 168.265H22.97L28.743 184.204H26.535L25.247 180.639ZM24.649 178.937L21.751 170.841L18.853 178.937H24.649ZM37.41 171.37C38.9434 171.37 40.1854 171.838 41.136 172.773C42.0867 173.693 42.562 175.027 42.562 176.775V184.204H40.492V177.074C40.492 175.817 40.1777 174.858 39.549 174.199C38.9204 173.524 38.0617 173.187 36.973 173.187C35.869 173.187 34.9874 173.532 34.328 174.222C33.684 174.912 33.362 175.916 33.362 177.235V184.204H31.269V171.6H33.362V173.394C33.776 172.75 34.3357 172.252 35.041 171.899C35.7617 171.546 36.5514 171.37 37.41 171.37ZM45.199 177.856C45.199 176.568 45.4596 175.441 45.981 174.475C46.5023 173.494 47.2153 172.735 48.12 172.198C49.04 171.661 50.0596 171.393 51.179 171.393C52.283 171.393 53.2413 171.631 54.054 172.106C54.8666 172.581 55.4723 173.179 55.871 173.9V171.6H57.987V184.204H55.871V181.858C55.457 182.594 54.836 183.207 54.008 183.698C53.1953 184.173 52.2446 184.411 51.156 184.411C50.0366 184.411 49.0246 184.135 48.12 183.583C47.2153 183.031 46.5023 182.257 45.981 181.26C45.4596 180.263 45.199 179.129 45.199 177.856ZM55.871 177.879C55.871 176.928 55.6793 176.1 55.296 175.395C54.9126 174.69 54.3913 174.153 53.732 173.785C53.088 173.402 52.375 173.21 51.593 173.21C50.811 173.21 50.098 173.394 49.454 173.762C48.81 174.13 48.2963 174.667 47.913 175.372C47.5296 176.077 47.338 176.905 47.338 177.856C47.338 178.822 47.5296 179.665 47.913 180.386C48.2963 181.091 48.81 181.636 49.454 182.019C50.098 182.387 50.811 182.571 51.593 182.571C52.375 182.571 53.088 182.387 53.732 182.019C54.3913 181.636 54.9126 181.091 55.296 180.386C55.6793 179.665 55.871 178.83 55.871 177.879ZM63.6169 167.184V184.204H61.5239V167.184H63.6169ZM78.0401 171.6L70.4501 190.138H68.2881L70.7721 184.066L65.6891 171.6H68.0121L71.9681 181.812L75.8781 171.6H78.0401ZM81.708 182.479H87.895V184.204H79.316V182.479L85.434 173.302H79.362V171.6H87.849V173.302L81.708 182.479ZM102.111 177.419C102.111 177.818 102.088 178.239 102.042 178.684H91.9678C92.0445 179.926 92.4662 180.9 93.2328 181.605C94.0148 182.295 94.9578 182.64 96.0618 182.64C96.9665 182.64 97.7178 182.433 98.3158 182.019C98.9292 181.59 99.3585 181.022 99.6038 180.317H101.858C101.521 181.528 100.846 182.517 99.8338 183.284C98.8218 184.035 97.5645 184.411 96.0618 184.411C94.8658 184.411 93.7925 184.143 92.8418 183.606C91.9065 183.069 91.1705 182.31 90.6338 181.329C90.0972 180.332 89.8288 179.182 89.8288 177.879C89.8288 176.576 90.0895 175.433 90.6108 174.452C91.1322 173.471 91.8605 172.719 92.7958 172.198C93.7465 171.661 94.8352 171.393 96.0618 171.393C97.2578 171.393 98.3158 171.654 99.2358 172.175C100.156 172.696 100.861 173.417 101.352 174.337C101.858 175.242 102.111 176.269 102.111 177.419ZM99.9488 176.982C99.9488 176.185 99.7725 175.502 99.4198 174.935C99.0672 174.352 98.5842 173.915 97.9708 173.624C97.3728 173.317 96.7058 173.164 95.9698 173.164C94.9118 173.164 94.0072 173.501 93.2558 174.176C92.5198 174.851 92.0982 175.786 91.9908 176.982H99.9488ZM113.098 182.502H118.71V184.204H111.005V168.173H113.098V182.502ZM132.433 177.419C132.433 177.818 132.41 178.239 132.364 178.684H122.29C122.367 179.926 122.788 180.9 123.555 181.605C124.337 182.295 125.28 182.64 126.384 182.64C127.289 182.64 128.04 182.433 128.638 182.019C129.251 181.59 129.681 181.022 129.926 180.317H132.18C131.843 181.528 131.168 182.517 130.156 183.284C129.144 184.035 127.887 184.411 126.384 184.411C125.188 184.411 124.115 184.143 123.164 183.606C122.229 183.069 121.493 182.31 120.956 181.329C120.419 180.332 120.151 179.182 120.151 177.879C120.151 176.576 120.412 175.433 120.933 174.452C121.454 173.471 122.183 172.719 123.118 172.198C124.069 171.661 125.157 171.393 126.384 171.393C127.58 171.393 128.638 171.654 129.558 172.175C130.478 172.696 131.183 173.417 131.674 174.337C132.18 175.242 132.433 176.269 132.433 177.419ZM130.271 176.982C130.271 176.185 130.095 175.502 129.742 174.935C129.389 174.352 128.906 173.915 128.293 173.624C127.695 173.317 127.028 173.164 126.292 173.164C125.234 173.164 124.329 173.501 123.578 174.176C122.842 174.851 122.42 175.786 122.313 176.982H130.271ZM134.414 177.856C134.414 176.568 134.674 175.441 135.196 174.475C135.717 173.494 136.43 172.735 137.335 172.198C138.255 171.661 139.274 171.393 140.394 171.393C141.498 171.393 142.456 171.631 143.269 172.106C144.081 172.581 144.687 173.179 145.086 173.9V171.6H147.202V184.204H145.086V181.858C144.672 182.594 144.051 183.207 143.223 183.698C142.41 184.173 141.459 184.411 140.371 184.411C139.251 184.411 138.239 184.135 137.335 183.583C136.43 183.031 135.717 182.257 135.196 181.26C134.674 180.263 134.414 179.129 134.414 177.856ZM145.086 177.879C145.086 176.928 144.894 176.1 144.511 175.395C144.127 174.69 143.606 174.153 142.947 173.785C142.303 173.402 141.59 173.21 140.808 173.21C140.026 173.21 139.313 173.394 138.669 173.762C138.025 174.13 137.511 174.667 137.128 175.372C136.744 176.077 136.553 176.905 136.553 177.856C136.553 178.822 136.744 179.665 137.128 180.386C137.511 181.091 138.025 181.636 138.669 182.019C139.313 182.387 140.026 182.571 140.808 182.571C141.59 182.571 142.303 182.387 142.947 182.019C143.606 181.636 144.127 181.091 144.511 180.386C144.894 179.665 145.086 178.83 145.086 177.879ZM149.957 177.856C149.957 176.568 150.217 175.441 150.739 174.475C151.26 173.494 151.973 172.735 152.878 172.198C153.798 171.661 154.825 171.393 155.96 171.393C156.941 171.393 157.853 171.623 158.697 172.083C159.54 172.528 160.184 173.118 160.629 173.854V167.184H162.745V184.204H160.629V181.835C160.215 182.586 159.601 183.207 158.789 183.698C157.976 184.173 157.025 184.411 155.937 184.411C154.817 184.411 153.798 184.135 152.878 183.583C151.973 183.031 151.26 182.257 150.739 181.26C150.217 180.263 149.957 179.129 149.957 177.856ZM160.629 177.879C160.629 176.928 160.437 176.1 160.054 175.395C159.67 174.69 159.149 174.153 158.49 173.785C157.846 173.402 157.133 173.21 156.351 173.21C155.569 173.21 154.856 173.394 154.212 173.762C153.568 174.13 153.054 174.667 152.671 175.372C152.287 176.077 152.096 176.905 152.096 177.856C152.096 178.822 152.287 179.665 152.671 180.386C153.054 181.091 153.568 181.636 154.212 182.019C154.856 182.387 155.569 182.571 156.351 182.571C157.133 182.571 157.846 182.387 158.49 182.019C159.149 181.636 159.67 181.091 160.054 180.386C160.437 179.665 160.629 178.83 160.629 177.879Z" fill="white"/>
<path d="M82.5 110V144.375" stroke="white" stroke-width="14.25" stroke-linecap="round" stroke-linejoin="round"/>
<path d="M110 96.25V144.375" stroke="white" stroke-width="14.25" stroke-linecap="round" stroke-linejoin="round"/>
<path d="M137.5 68.75V144.375" stroke="white" stroke-width="14.25" stroke-linecap="round" stroke-linejoin="round"/>
<path d="M151.25 20.625L91.8088 80.0662C91.4894 80.3864 91.1101 80.6404 90.6925 80.8136C90.2749 80.9869 89.8272 81.0761 89.375 81.0761C88.9228 81.0761 88.4751 80.9869 88.0575 80.8136C87.6399 80.6404 87.2606 80.3864 86.9412 80.0662L64.3088 57.4338C63.6641 56.7893 62.7899 56.4273 61.8784 56.4273C60.9669 56.4273 60.0928 56.7893 59.4481 57.4338L13.75 103.125" stroke="white" stroke-width="14.25" stroke-linecap="round" stroke-linejoin="round"/>
<path d="M27.5 123.75V144.375" stroke="white" stroke-width="14.25" stroke-linecap="round" stroke-linejoin="round"/>
<path d="M55 96.25V144.375" stroke="white" stroke-width="14.25" stroke-linecap="round" stroke-linejoin="round"/>
</svg>
