<?xml version="1.0" encoding="UTF-8"?>
<svg version="1.1" xmlns="http://www.w3.org/2000/svg" width="366" height="459">
<path d="M0 0 C1.61629049 0.53175054 3.23274921 1.06298996 4.84936523 1.59375 C21.61784102 7.1177213 38.32080094 12.84058021 55.01248169 18.5917511 C60.37507037 20.43662869 65.75319487 22.228468 71.15014648 23.97070312 C71.92559814 24.24849609 72.7010498 24.52628906 73.5 24.8125 C74.22324463 25.05419922 74.94648926 25.29589844 75.69165039 25.54492188 C78.45321849 27.48066665 78.65220462 29.58344651 79.5 32.8125 C79.6838827 35.61600415 79.77379101 38.31741034 79.75878906 41.1184082 C79.76404602 42.33697258 79.76404602 42.33697258 79.76940918 43.58015442 C79.77818698 46.25795122 79.77238524 48.93548187 79.765625 51.61328125 C79.76697422 53.49212189 79.76891688 55.37096218 79.77142334 57.24980164 C79.77437048 61.19138914 79.77009545 65.13288595 79.76074219 69.07446289 C79.74943435 74.07908909 79.75585424 79.08349867 79.76788712 84.08811665 C79.77519108 87.97394881 79.77277765 91.85973158 79.76763153 95.74556541 C79.76631396 97.58758763 79.7678749 99.42961459 79.77259064 101.27163124 C79.82632564 128.19439215 76.52025459 154.5278942 60.84375 177.10546875 C59.23321913 179.63256958 59.23321913 179.63256958 59.96484375 181.84375 C62.78169096 185.45619527 66.05951428 188.6191277 69.28515625 191.86328125 C71.87534201 195.31229403 72.37835861 197.53477768 72.5 201.8125 C70.9375 204.25 70.9375 204.25 68.5 205.8125 C65.625 206.375 65.625 206.375 62.5 205.8125 C57.33719549 202.29739906 53.49491596 197.57566903 49.5 192.8125 C48.530625 193.6375 47.56125 194.4625 46.5625 195.3125 C45.91410156 195.86421875 45.26570312 196.4159375 44.59765625 196.984375 C43.22857644 198.17753953 41.8807256 199.39563967 40.55859375 200.640625 C26.20647199 214.03956979 -0.99341851 233.58740112 -21.37329102 233.05102539 C-25.23282562 232.6181514 -28.70574641 231.33002646 -32.3125 229.9375 C-33.54311157 229.46993286 -33.54311157 229.46993286 -34.79858398 228.99291992 C-67.32358777 216.23284836 -95.66874479 195.52143652 -111.1875 163.5625 C-113.1775732 158.95037089 -114.73060797 154.2390727 -116.1875 149.4375 C-116.49143677 148.4489502 -116.49143677 148.4489502 -116.80151367 147.44042969 C-120.83073677 133.48859336 -120.81158049 119.63951938 -120.80078125 105.24609375 C-120.8046745 103.07707132 -120.80901045 100.90804964 -120.81376648 98.73902893 C-120.82118629 94.21979279 -120.82096558 89.70063488 -120.81567383 85.18139648 C-120.8098439 79.38757729 -120.82691517 73.59407413 -120.8500185 67.80030727 C-120.86472533 63.33340076 -120.86563241 58.86657128 -120.86250877 54.39964485 C-120.86302218 52.26218089 -120.86826353 50.12471263 -120.87832069 47.98727226 C-120.89062655 45.01010062 -120.88393178 42.03355768 -120.87231445 39.05639648 C-120.87995819 38.1748288 -120.88760193 37.29326111 -120.89547729 36.38497925 C-120.84436139 30.47274375 -120.84436139 30.47274375 -119.20901489 27.33729553 C-117.40444092 25.7272415 -116.06416326 24.9503322 -113.78344727 24.171875 C-113.03767929 23.9101651 -112.29191132 23.6484552 -111.52354431 23.3788147 C-110.71268875 23.10943085 -109.90183319 22.840047 -109.06640625 22.5625 C-108.21329361 22.2675766 -107.36018097 21.9726532 -106.48121643 21.66879272 C-103.67918489 20.70388753 -100.87109371 19.75811588 -98.0625 18.8125 C-96.11992213 18.14769178 -94.17770498 17.48182863 -92.23583984 16.81494141 C-78.27773508 12.03517751 -64.28515766 7.3492383 -50.26391602 2.7578125 C-48.88683437 2.30483079 -47.50979855 1.85170972 -46.1328125 1.3984375 C-45.47866867 1.18499695 -44.82452484 0.9715564 -44.15055847 0.75164795 C-39.85915903 -0.66933401 -35.71992167 -2.33424857 -31.5546875 -4.0859375 C-20.46982343 -8.33194376 -10.74064201 -3.57988832 0 0 Z " fill="#DAE2EF" transform="translate(202.5,86.1875)"/>
<path d="M0 0 C5.56900638 2.18650431 11.07301497 4.00527201 16.87890625 5.48046875 C20.11520709 6.38400452 23.10161591 7.80247825 26.1875 9.125 C28.79736985 9.8654747 31.41497472 10.54179706 34.05078125 11.18359375 C36.63586947 11.95944215 38.98669912 12.84953678 41.46948242 13.88696289 C48.13443144 16.57422406 54.96393323 18.70969619 61.8125 20.875 C63.11599266 21.29002791 64.41937885 21.70539038 65.72265625 22.12109375 C68.87657762 23.12567611 72.03152367 24.12689613 75.1875 25.125 C75.25736498 36.60044241 75.31049519 48.07583326 75.34293652 59.55144596 C75.35851574 64.88146095 75.37961065 70.2113292 75.41381836 75.54125977 C75.44669036 80.69600786 75.46441105 85.85061582 75.47213173 91.00546074 C75.47762571 92.96080159 75.48835226 94.91613578 75.50469017 96.87141609 C75.58822029 107.29352044 75.27067233 116.99863984 72.80445862 127.15594482 C71.96189773 131.21068964 72.39359632 134.0805018 73.1875 138.125 C73.95646391 149.00899948 74.42685983 161.26337467 67.1875 170.125 C64.71949953 168.97326645 63.13966435 168.07716435 61.1875 166.125 C61.47134018 163.00275806 62.1062995 160.34153466 63.20703125 157.40625 C65.50144451 149.72773551 65.57715834 140.0135861 62.25 132.625 C57.72719758 125.03589086 50.51535331 119.09113444 42.1875 116.125 C38.83238359 115.59056882 35.57889015 115.56333836 32.1875 115.625 C31.33671875 115.60953125 30.4859375 115.5940625 29.609375 115.578125 C20.70096518 115.63277782 14.46506892 119.21273287 7.953125 125.109375 C5.09435996 128.37292093 3.58965898 132.05689401 2.1875 136.125 C1.8575 136.125 1.5275 136.125 1.1875 136.125 C1.208125 134.8875 1.22875 133.65 1.25 132.375 C1.25516681 129.4609175 1.11765558 126.91546673 0.1875 124.125 C0.8475 124.125 1.5075 124.125 2.1875 124.125 C2.1875 123.465 2.1875 122.805 2.1875 122.125 C2.97125 122.063125 3.755 122.00125 4.5625 121.9375 C5.42875 121.669375 6.295 121.40125 7.1875 121.125 C8.43464403 118.71547977 8.43464403 118.71547977 9.1875 116.125 C11.3260485 113.9864515 12.32025314 113.69844937 15.1875 113.125 C15.6825 111.145 15.6825 111.145 16.1875 109.125 C20.1475 108.135 20.1475 108.135 24.1875 107.125 C23.8575 103.825 23.5275 100.525 23.1875 97.125 C20.74923828 97.17720703 20.74923828 97.17720703 18.26171875 97.23046875 C16.13282281 97.25860394 14.00391573 97.28590438 11.875 97.3125 C10.80314453 97.33763672 9.73128906 97.36277344 8.62695312 97.38867188 C7.08491211 97.40317383 7.08491211 97.40317383 5.51171875 97.41796875 C4.0899231 97.44153442 4.0899231 97.44153442 2.6394043 97.46557617 C-0.21021408 97.06975643 -1.06226105 96.34675281 -2.8125 94.125 C-1.1875 88.375 -1.1875 88.375 2.1875 86.125 C4.2722168 85.89794922 4.2722168 85.89794922 6.63671875 85.9296875 C7.48427734 85.93613281 8.33183594 85.94257813 9.20507812 85.94921875 C10.52668945 85.97435547 10.52668945 85.97435547 11.875 86 C12.76767578 86.00902344 13.66035156 86.01804687 14.58007812 86.02734375 C16.78282314 86.05090252 18.98502588 86.08379671 21.1875 86.125 C21.1875 85.465 21.1875 84.805 21.1875 84.125 C23.1675 84.62 23.1675 84.62 25.1875 85.125 C25.1875 85.785 25.1875 86.445 25.1875 87.125 C26.1775 87.125 27.1675 87.125 28.1875 87.125 C27.7853125 85.949375 27.7853125 85.949375 27.375 84.75 C27.05959261 78.65212375 29.65780699 74.12422278 33.55810547 69.5 C35.10688509 67.79372573 36.69176729 66.13801339 38.3125 64.5 C38.83932373 63.96681152 39.36614746 63.43362305 39.90893555 62.88427734 C43.79607526 59.125 43.79607526 59.125 47.1875 59.125 C48.85416667 60.79166667 50.52083333 62.45833333 52.1875 64.125 C53.83238469 64.84373261 55.49740553 65.52018358 57.1875 66.125 C57.52903092 62.83413156 57.85916646 59.54220923 58.1875 56.25 C58.33058594 54.87328125 58.33058594 54.87328125 58.4765625 53.46875 C59.08160312 47.33190947 59.30815893 41.29033625 59.1875 35.125 C52.14731462 34.89411464 45.53637412 35.54301386 38.58203125 36.6875 C35.07960464 37.13890596 31.71483865 37.19671209 28.1875 37.125 C29.25201188 40.51208325 30.22898153 42.16549387 32.8125 44.6875 C35.1875 47.125 35.1875 47.125 35.1875 51.125 C33.68359375 52.765625 33.68359375 52.765625 31.625 54.375 C28.02482809 57.34022096 25.00500306 60.45576409 22.0234375 64.03515625 C21.41757813 64.72480469 20.81171875 65.41445312 20.1875 66.125 C19.79409424 66.6396582 19.40068848 67.15431641 18.99536133 67.68457031 C16.83774119 70.24203048 15.24151314 71.8893053 11.91113281 72.6340332 C9.30099669 72.79532519 6.73929686 72.81119788 4.125 72.75 C-2.68402271 72.50440126 -2.68402271 72.50440126 -8.828125 75.0078125 C-10.84287915 77.08010822 -10.84287915 77.08010822 -12.5 79.375 C-12.933125 79.9525 -13.36625 80.53 -13.8125 81.125 C-14.4725 81.125 -15.1325 81.125 -15.8125 81.125 C-16.01875 81.65609375 -16.225 82.1871875 -16.4375 82.734375 C-18.39211192 86.13273436 -21.03373717 88.63555928 -23.8125 91.375 C-24.3590625 91.92929688 -24.905625 92.48359375 -25.46875 93.0546875 C-29.5591133 97.125 -29.5591133 97.125 -31.8125 97.125 C-32.18375 97.99125 -32.18375 97.99125 -32.5625 98.875 C-34.15512275 101.74172095 -35.11238639 103.16792518 -37.8125 105.125 C-42.3686035 105.76260023 -46.98286429 105.53482329 -51.57226562 105.4375 C-57.68363954 105.48715233 -61.06907598 106.17410677 -65.43725586 110.57421875 C-65.89108643 111.08597656 -66.34491699 111.59773438 -66.8125 112.125 C-67.43898438 112.79144531 -68.06546875 113.45789063 -68.7109375 114.14453125 C-69.19820312 114.73621094 -69.68546875 115.32789063 -70.1875 115.9375 C-72.84218767 119.11224038 -75.68927572 121.84208794 -78.75 124.625 C-81.81586457 127.57843822 -81.81586457 127.57843822 -83.41796875 131.40234375 C-83.44364213 134.2418201 -83.08720292 136.57559416 -81.8125 139.125 C-81.11382812 139.09019531 -80.41515625 139.05539063 -79.6953125 139.01953125 C-78.33019531 138.97892578 -78.33019531 138.97892578 -76.9375 138.9375 C-76.03257813 138.90269531 -75.12765625 138.86789063 -74.1953125 138.83203125 C-73.01582031 138.97705078 -73.01582031 138.97705078 -71.8125 139.125 C-71.1525 140.115 -70.4925 141.105 -69.8125 142.125 C-68.8225 142.125 -67.8325 142.125 -66.8125 142.125 C-66.81886475 142.85090332 -66.82522949 143.57680664 -66.83178711 144.32470703 C-66.84050596 147.63416966 -66.79575691 150.94086057 -66.75 154.25 C-66.76095703 155.39210937 -66.77191406 156.53421875 -66.78320312 157.7109375 C-66.79462729 163.8839965 -66.79462729 163.8839965 -64.19189453 169.26855469 C-62.46377635 170.74979884 -60.78410512 171.99350363 -58.8125 173.125 C-60.5625 178.875 -60.5625 178.875 -62.8125 181.125 C-69.82792211 180.27292444 -74.64004662 173.43653739 -78.75 168.25 C-95.39683902 146.50532285 -99.15245862 122.27260847 -99.0078125 95.6328125 C-99.00407404 93.59016052 -99.00123102 91.54750672 -98.99923706 89.50485229 C-98.9916661 84.17517998 -98.97207514 78.84561978 -98.9498291 73.51599121 C-98.92922843 68.05885331 -98.92020518 62.60169698 -98.91015625 57.14453125 C-98.88882196 46.47130539 -98.85476672 35.79816208 -98.8125 25.125 C-93.41131479 23.23254649 -88.00994884 21.34060999 -82.60842896 19.44911194 C-80.77850691 18.80823563 -78.94863071 18.1672284 -77.11880493 17.52607727 C-62.43482108 12.38111985 -47.74340545 7.25770676 -33.01074219 2.25341797 C-30.72018312 1.44525278 -28.44613831 0.5896731 -26.18457031 -0.29638672 C-15.82805164 -4.29182985 -10.13597917 -4.12919502 0 0 Z " fill="#DCE4F1" transform="translate(193.8125,96.875)"/>
<path d="M0 0 C1.61629049 0.53175054 3.23274921 1.06298996 4.84936523 1.59375 C21.61784102 7.1177213 38.32080094 12.84058021 55.01248169 18.5917511 C60.37507037 20.43662869 65.75319487 22.228468 71.15014648 23.97070312 C71.92559814 24.24849609 72.7010498 24.52628906 73.5 24.8125 C74.22324463 25.05419922 74.94648926 25.29589844 75.69165039 25.54492188 C78.45321849 27.48066665 78.65220462 29.58344651 79.5 32.8125 C79.6838827 35.61600415 79.77379101 38.31741034 79.75878906 41.1184082 C79.76404602 42.33697258 79.76404602 42.33697258 79.76940918 43.58015442 C79.77818698 46.25795122 79.77238524 48.93548187 79.765625 51.61328125 C79.76697422 53.49212189 79.76891688 55.37096218 79.77142334 57.24980164 C79.77437048 61.19138914 79.77009545 65.13288595 79.76074219 69.07446289 C79.74943435 74.07908909 79.75585424 79.08349867 79.76788712 84.08811665 C79.77519108 87.97394881 79.77277765 91.85973158 79.76763153 95.74556541 C79.76631396 97.58758763 79.7678749 99.42961459 79.77259064 101.27163124 C79.82353345 126.79543002 76.69890906 151.48244912 63.5 173.8125 C63.17 173.8125 62.84 173.8125 62.5 173.8125 C62.74363281 172.09546875 62.74363281 172.09546875 62.9921875 170.34375 C63.53524825 165.98391244 63.64898417 161.70160235 63.625 157.3125 C63.62886719 156.60480469 63.63273438 155.89710938 63.63671875 155.16796875 C63.63037924 151.7002581 63.46760596 148.64507011 62.8046875 145.21875 C62.25241067 141.3144968 63.02881494 138.17506799 63.94897461 134.35913086 C66.09160312 124.51698539 65.97942692 114.69012656 66.01171875 104.66015625 C66.02860321 102.66376164 66.04675837 100.66737741 66.06611633 98.67100525 C66.11321388 93.46802011 66.14328181 88.26507707 66.16955566 83.06195068 C66.19956647 77.73197108 66.2460252 72.40213611 66.29101562 67.07226562 C66.37658968 56.65242005 66.4441368 46.23254432 66.5 35.8125 C65.85471344 35.6920079 65.20942688 35.57151581 64.54458618 35.44737244 C59.54379978 34.48557124 54.73134856 33.38773173 49.8984375 31.75390625 C48.74859375 31.36783203 47.59875 30.98175781 46.4140625 30.58398438 C45.24617187 30.18501953 44.07828125 29.78605469 42.875 29.375 C41.1115625 28.78235352 41.1115625 28.78235352 39.3125 28.17773438 C34.51001195 26.55622015 29.71933422 24.92102881 24.98046875 23.12109375 C22.14405713 22.05465392 19.35166666 21.12982888 16.4375 20.3125 C12.30013169 19.10340606 8.46378264 17.51126399 4.5 15.8125 C2.13857271 15.06948309 -0.23607555 14.38813448 -2.6171875 13.7109375 C-7.20066557 12.28248228 -11.64570346 10.47683737 -16.10546875 8.703125 C-22.30777868 7.07582159 -27.8058179 9.08802538 -33.71484375 11.1484375 C-34.3953479 11.38366119 -35.07585205 11.61888489 -35.77697754 11.86123657 C-37.9992224 12.63083499 -40.21830285 13.40916194 -42.4375 14.1875 C-43.99139384 14.72720786 -45.54551516 15.26626119 -47.09985352 15.8046875 C-50.30587165 16.91603301 -53.51077386 18.03051134 -56.71484375 19.14746094 C-63.43517748 21.48847707 -70.16558215 23.80010731 -76.89627075 26.11114502 C-78.87842366 26.7922017 -80.86006396 27.47472866 -82.84155273 28.15771484 C-86.39286087 29.38043782 -89.94581788 30.59815867 -93.5 31.8125 C-94.65516113 32.20824219 -95.81032227 32.60398438 -97.00048828 33.01171875 C-98.08442871 33.37910156 -99.16836914 33.74648437 -100.28515625 34.125 C-101.72387085 34.61419922 -101.72387085 34.61419922 -103.19165039 35.11328125 C-105.5 35.8125 -105.5 35.8125 -107.5 35.8125 C-107.4384249 47.51435867 -107.36106206 59.21600099 -107.26428509 70.91762447 C-107.21981377 76.35286373 -107.18050831 81.78803202 -107.15356445 87.22338867 C-107.12729729 92.48202316 -107.08673494 97.74038103 -107.03681374 102.99884224 C-107.02030164 104.9915475 -107.00869102 106.98430043 -107.00238609 108.97706413 C-106.89863673 138.79156254 -100.13575851 165.20845347 -79.10302734 187.22558594 C-65.1869439 201.00178795 -40.18697307 216.57150385 -20.5625 219.375 C-15.04475806 219.03494036 -10.34333512 216.26986782 -5.5 213.8125 C-4.23280643 213.19967688 -2.96451659 212.589117 -1.6953125 211.98046875 C4.83708642 208.81523678 11.02618365 205.53906039 17.0625 201.5 C25.29832465 196.28329312 34.80455601 193.69578475 44.5 195.8125 C40.66506233 200.60791365 36.73893808 204.54875108 31.75 208.125 C31.10587158 208.59010986 30.46174316 209.05521973 29.7980957 209.53442383 C16.05017941 219.23333002 -6.16374051 234.45123194 -23.5 232.8125 C-26.53907825 232.09832709 -29.40261542 231.06097328 -32.3125 229.9375 C-33.54311157 229.46993286 -33.54311157 229.46993286 -34.79858398 228.99291992 C-67.32358777 216.23284836 -95.66874479 195.52143652 -111.1875 163.5625 C-113.1775732 158.95037089 -114.73060797 154.2390727 -116.1875 149.4375 C-116.49143677 148.4489502 -116.49143677 148.4489502 -116.80151367 147.44042969 C-120.83073677 133.48859336 -120.81158049 119.63951938 -120.80078125 105.24609375 C-120.8046745 103.07707132 -120.80901045 100.90804964 -120.81376648 98.73902893 C-120.82118629 94.21979279 -120.82096558 89.70063488 -120.81567383 85.18139648 C-120.8098439 79.38757729 -120.82691517 73.59407413 -120.8500185 67.80030727 C-120.86472533 63.33340076 -120.86563241 58.86657128 -120.86250877 54.39964485 C-120.86302218 52.26218089 -120.86826353 50.12471263 -120.87832069 47.98727226 C-120.89062655 45.01010062 -120.88393178 42.03355768 -120.87231445 39.05639648 C-120.87995819 38.1748288 -120.88760193 37.29326111 -120.89547729 36.38497925 C-120.84436139 30.47274375 -120.84436139 30.47274375 -119.20901489 27.33729553 C-117.40444092 25.7272415 -116.06416326 24.9503322 -113.78344727 24.171875 C-113.03767929 23.9101651 -112.29191132 23.6484552 -111.52354431 23.3788147 C-110.71268875 23.10943085 -109.90183319 22.840047 -109.06640625 22.5625 C-108.21329361 22.2675766 -107.36018097 21.9726532 -106.48121643 21.66879272 C-103.67918489 20.70388753 -100.87109371 19.75811588 -98.0625 18.8125 C-96.11992213 18.14769178 -94.17770498 17.48182863 -92.23583984 16.81494141 C-78.27773508 12.03517751 -64.28515766 7.3492383 -50.26391602 2.7578125 C-48.88683437 2.30483079 -47.50979855 1.85170972 -46.1328125 1.3984375 C-45.47866867 1.18499695 -44.82452484 0.9715564 -44.15055847 0.75164795 C-39.85915903 -0.66933401 -35.71992167 -2.33424857 -31.5546875 -4.0859375 C-20.46982343 -8.33194376 -10.74064201 -3.57988832 0 0 Z " fill="#0B2541" transform="translate(202.5,86.1875)"/>
<path d="M0 0 C1.28293945 -0.0299707 1.28293945 -0.0299707 2.59179688 -0.06054688 C12.47226768 -0.05301028 18.75639551 4.29045998 25.78515625 10.97265625 C32.14788319 17.85924407 33.66625128 24.37104229 33.53198242 33.59692383 C33.32392238 38.30042675 32.55041147 42.35325229 30.62109375 46.640625 C29.87184715 49.05078888 30.0593019 50.11760439 31.0625 52.4375 C33.09315546 54.53566403 33.09315546 54.53566403 35.625 56.5625 C48.41201224 67.76495453 48.41201224 67.76495453 49.4375 73.5546875 C49.25 75.4375 49.25 75.4375 48.0625 78.4375 C44.52120816 80.79836122 43.23499782 81.01019578 39.0625 80.4375 C33.89230133 76.91736473 30.07396354 72.19382142 26.0625 67.4375 C24.91734541 66.10358367 23.77156055 64.77020803 22.625 63.4375 C21.779375 62.4475 20.93375 61.4575 20.0625 60.4375 C15.8970704 61.78255028 15.8970704 61.78255028 11.8671875 63.4765625 C5.01335359 65.824812 -4.20331943 65.80654218 -11.02734375 63.3046875 C-13.51659901 61.83951722 -15.70677295 60.26913276 -17.9375 58.4375 C-18.91783203 57.71820313 -18.91783203 57.71820313 -19.91796875 56.984375 C-26.57616331 51.81682101 -29.9715278 45.56752477 -31.9375 37.4375 C-33.07844305 27.38842467 -32.25487608 19.52840174 -25.9375 11.4375 C-18.20644175 3.02017027 -11.26045042 -0.09292195 0 0 Z " fill="#E69113" transform="translate(225.9375,211.5625)"/>
<path d="M0 0 C1 1 1 1 1.1875 4.875 C1.14020261 10.28266791 0.61790056 15.62557897 0.0625 21 C-0.02427002 21.84933105 -0.11104004 22.69866211 -0.20043945 23.57373047 C-0.28769287 24.37439941 -0.37494629 25.17506836 -0.46484375 26 C-0.543396 26.721875 -0.62194824 27.44375 -0.70288086 28.1875 C-1 30 -1 30 -2 32 C-6.38462134 31.49890042 -8.8000997 30.01704885 -12 27 C-12 26.34 -12 25.68 -12 25 C-16.79102994 27.49966779 -20.1981278 30.93414979 -23.9375 34.75 C-24.53240234 35.34554687 -25.12730469 35.94109375 -25.74023438 36.5546875 C-29.21624242 40.06488579 -32.46724288 43.6627375 -35.54516602 47.52832031 C-37.26310271 49.26614921 -38.71743896 50.1300306 -41 51 C-43.09888626 50.90328661 -45.19781647 50.80242044 -47.29443359 50.66503906 C-54.01836305 50.38426253 -59.18592123 50.75821804 -64.3515625 55.38671875 C-67.83853576 58.97919359 -71.00058017 62.83079838 -74.12890625 66.73632812 C-76.99868057 70.20821584 -80.16173078 73.348958 -83.375 76.5 C-83.91688965 77.04495117 -84.4587793 77.58990234 -85.01708984 78.15136719 C-89.83755698 82.96714668 -89.83755698 82.96714668 -93.21142578 83.0625 C-94.1136084 83.041875 -95.01579102 83.02125 -95.9453125 83 C-106.97145374 82.5319793 -106.97145374 82.5319793 -117.125 85.890625 C-119.05374234 88.16593823 -120.54151846 90.40417048 -122 93 C-123.64646685 94.68662458 -125.31183067 96.35511706 -127 98 C-127.54398438 98.61230469 -128.08796875 99.22460938 -128.6484375 99.85546875 C-133.1959289 104.82990804 -133.1959289 104.82990804 -137.25 105.6875 C-140 105 -140 105 -141.875 103.375 C-143.40299662 100.14922936 -143.55793383 98.56574254 -143 95 C-140.90961188 92.17828299 -138.38990336 89.87360868 -135.8125 87.5 C-134.46258343 86.22113167 -133.11488656 84.93991585 -131.76953125 83.65625 C-131.12064941 83.04136719 -130.47176758 82.42648438 -129.80322266 81.79296875 C-128.16951561 80.16855167 -126.70594928 78.51090125 -125.26171875 76.71875 C-120.69476252 71.22893733 -120.69476252 71.22893733 -116.62158203 70.67871094 C-115.75903809 70.69708008 -114.89649414 70.71544922 -114.0078125 70.734375 C-113.05519531 70.73050781 -112.10257813 70.72664063 -111.12109375 70.72265625 C-109.13130528 70.74081599 -107.14159518 70.77455281 -105.15234375 70.82421875 C-99.76167876 70.87430471 -99.76167876 70.87430471 -95.10620117 68.515625 C-93.60993602 66.74199536 -92.30368477 64.91756095 -91 63 C-89.72179411 61.79585837 -88.41458821 60.62054667 -87.0625 59.5 C-81.06318442 54.37891123 -75.74058485 48.84079337 -70.67578125 42.796875 C-70.12277344 42.20390625 -69.56976563 41.6109375 -69 41 C-68.47277344 40.43152344 -67.94554687 39.86304688 -67.40234375 39.27734375 C-63.53696577 37.22209399 -59.5524367 37.77268431 -55.25 37.8125 C-46.75241557 37.74866248 -46.75241557 37.74866248 -39.875 33.125 C-38.23632612 31.07516604 -38.23632612 31.07516604 -37 29 C-36.01 27.515 -36.01 27.515 -35 26 C-34.34 26 -33.68 26 -33 26 C-32.34 24.68 -31.68 23.36 -31 22 C-30.34 22 -29.68 22 -29 22 C-28.731875 21.360625 -28.46375 20.72125 -28.1875 20.0625 C-27 18 -27 18 -24 17 C-25.06451188 13.61291675 -26.04148153 11.95950613 -28.625 9.4375 C-31 7 -31 7 -31 3 C-27.71010715 2.48785549 -24.41787138 1.99259936 -21.125 1.5 C-20.2071875 1.35691406 -19.289375 1.21382812 -18.34375 1.06640625 C-12.24541475 0.16453977 -6.16932117 -0.48985587 0 0 Z " fill="#E79112" transform="translate(253,131)"/>
<path d="M0 0 C0.82741699 0.01047363 1.65483398 0.02094727 2.50732422 0.03173828 C3.40322266 0.03818359 4.29912109 0.04462891 5.22216797 0.05126953 C6.62789062 0.07640625 6.62789062 0.07640625 8.06201172 0.10205078 C9.00689453 0.11107422 9.95177734 0.12009766 10.92529297 0.12939453 C13.26278464 0.15300556 15.59977295 0.18593562 17.93701172 0.22705078 C19.397424 3.14787534 19.05629968 5.71006447 19.05053711 8.97167969 C19.05068314 9.66447525 19.05082916 10.35727081 19.05097961 11.07106018 C19.0502819 13.36527619 19.04249613 15.65941142 19.03466797 17.95361328 C19.03280329 19.54259192 19.03137962 21.13157112 19.03038025 22.72055054 C19.02655903 26.90614403 19.0167321 31.09170291 19.00567627 35.27728271 C18.99545366 39.54699231 18.9908808 43.81670748 18.98583984 48.08642578 C18.9751095 56.46665001 18.9580378 64.84684609 18.93701172 73.22705078 C14.88248064 73.40973303 12.19165329 73.2296215 8.63232422 71.25830078 C7.51083984 70.64921875 7.51083984 70.64921875 6.36669922 70.02783203 C5.22587891 69.38394531 5.22587891 69.38394531 4.06201172 68.72705078 C3.27826172 68.29779297 2.49451172 67.86853516 1.68701172 67.42626953 C-0.23611798 66.37089348 -2.1521208 65.30442091 -4.06298828 64.22705078 C-4.10927663 56.17781095 -4.14483954 48.12862649 -4.16661263 40.07928658 C-4.17706126 36.34187248 -4.19123998 32.60454928 -4.21386719 28.8671875 C-4.23555732 25.26214578 -4.24754877 21.65719162 -4.25274277 18.05208969 C-4.25644544 16.6749318 -4.26367562 15.29777884 -4.27444839 13.92065811 C-4.28891163 11.99565533 -4.28980476 10.07056491 -4.29003906 8.14550781 C-4.29448029 7.0485257 -4.29892151 5.95154358 -4.30349731 4.82131958 C-4.00472451 1.5985842 -3.32719362 0.36618817 0 0 Z " fill="#0D2643" transform="translate(165.06298828125,220.77294921875)"/>
<path d="M0 0 C2.97 0 5.94 0 9 0 C9 2.64 9 5.28 9 8 C9.70125 8.0825 10.4025 8.165 11.125 8.25 C15.49662409 9.39042368 18.68693193 11.64165372 21.8125 14.875 C23.30488914 17.54559109 23.65685192 19.98029687 24 23 C20.28975528 23.29240107 16.7012285 23.44751696 13 23 C11.29319053 21.37446717 9.62339805 19.70884005 8 18 C4.22372672 17.37615169 0.46170725 17.26914637 -3 19 C-3 21.31 -3 23.62 -3 26 C0.60012284 28.08428164 3.81274622 29.24165097 7.875 29.9375 C14.20218706 31.10955423 19.01340178 32.91407186 23.5 37.625 C25.53594177 42.20586898 25.79592147 46.06367898 25 51 C22.81018851 55.37962299 20.15022066 58.39404749 16 61 C12.1875 61.75 12.1875 61.75 9 62 C9 64.97 9 67.94 9 71 C6.03 71 3.06 71 0 71 C0 68.03 0 65.06 0 62 C-0.825 62.12375 -1.65 62.2475 -2.5 62.375 C-7.51738914 61.83742259 -10.3682852 59.37516983 -14 56 C-16.97129291 52.28588386 -17.32856009 49.70936127 -17 45 C-13.27299061 44.65300257 -9.71327301 44.45881591 -6 45 C-3.4375 47.9375 -3.4375 47.9375 -2 51 C0.3396669 52.16983345 1.83391527 52.1661241 4.4375 52.1875 C5.21996094 52.20167969 6.00242188 52.21585938 6.80859375 52.23046875 C9.29205987 52.14086064 9.29205987 52.14086064 12 50 C12.2502157 46.91634129 12.2502157 46.91634129 12 44 C8.17956748 41.72839148 4.96968359 40.73632559 0.5625 40.0625 C-5.85984285 38.98920086 -9.85420978 37.25583075 -14.4375 32.4375 C-16.66919198 27.52777764 -17.13051393 23.29320097 -16 18 C-13.30546312 13.45526341 -9.92639492 10.01624631 -5 8 C-2.25 7.875 -2.25 7.875 0 8 C0 5.36 0 2.72 0 0 Z " fill="#0D2642" transform="translate(136,120)"/>
<path d="M0 0 C6.06636343 -0.27834866 9.67125342 0.00562802 14.39453125 4.1796875 C14.92949219 4.65019531 15.46445313 5.12070313 16.015625 5.60546875 C20.73018865 9.98085516 22.45334762 13.52030392 22.76953125 19.9921875 C22.66065798 25.21810433 21.20013133 28.83052197 18.39453125 33.1796875 C17.79640625 34.1078125 17.19828125 35.0359375 16.58203125 35.9921875 C11.65663822 40.91758053 7.0865617 41.40366177 0.33203125 41.6171875 C-7.15131505 41.43486021 -10.22701223 39.66625568 -15.35546875 34.3046875 C-19.72346592 28.23802476 -20.31412258 22.47533678 -19.60546875 15.1796875 C-17.84703234 8.69545324 -14.0504054 4.8759618 -8.60546875 1.1796875 C-5.63503721 0.18954365 -3.09685434 0.21357616 0 0 Z " fill="#DEE5F1" transform="translate(225.60546875,222.8203125)"/>
<path d="M0 0 C0.84175781 -0.00257813 1.68351563 -0.00515625 2.55078125 -0.0078125 C3.87142578 0.00378906 3.87142578 0.00378906 5.21875 0.015625 C6.09917969 0.00789062 6.97960937 0.00015625 7.88671875 -0.0078125 C8.72847656 -0.00523437 9.57023438 -0.00265625 10.4375 0 C11.59668945 0.00338379 11.59668945 0.00338379 12.77929688 0.00683594 C14.71875 0.265625 14.71875 0.265625 16.71875 2.265625 C16.95925903 4.13858032 16.95925903 4.13858032 16.94580078 6.43994141 C16.94564972 7.30068268 16.94549866 8.16142395 16.94534302 9.04824829 C16.93502045 9.97849823 16.92469788 10.90874817 16.9140625 11.8671875 C16.9112326 12.81878754 16.90840271 13.77038757 16.90548706 14.75082397 C16.89426989 17.79755092 16.86916263 20.84398654 16.84375 23.890625 C16.83372218 25.95312076 16.82459599 28.01562112 16.81640625 30.078125 C16.79432554 35.14073767 16.7597853 40.2031319 16.71875 45.265625 C13.08822619 43.86387399 10.09171431 42.32699076 6.90625 40.078125 C6.11605469 39.52769531 5.32585937 38.97726562 4.51171875 38.41015625 C3.59003906 37.70246094 2.66835937 36.99476563 1.71875 36.265625 C1.03071289 35.83209717 0.34267578 35.39856934 -0.36621094 34.9519043 C-3.96099337 32.40101286 -5.98686434 30.60666772 -6.95336914 26.20385742 C-7.14099361 22.58844879 -7.07816022 19.06897002 -6.90625 15.453125 C-6.88691406 14.21369141 -6.86757812 12.97425781 -6.84765625 11.69726562 C-6.55426787 0.01913256 -6.55426787 0.01913256 0 0 Z " fill="#092340" transform="translate(134.28125,235.734375)"/>
<path d="M0 0 C0.99 0.33 1.98 0.66 3 1 C2.67 2.32 2.34 3.64 2 5 C3.11375 5.2475 4.2275 5.495 5.375 5.75 C9 7 9 7 10.2265625 9.078125 C10.48179688 9.71234375 10.73703125 10.3465625 11 11 C11.69867188 10.96519531 12.39734375 10.93039063 13.1171875 10.89453125 C14.48230469 10.85392578 14.48230469 10.85392578 15.875 10.8125 C16.77992187 10.77769531 17.68484375 10.74289063 18.6171875 10.70703125 C19.79667969 10.85205078 19.79667969 10.85205078 21 11 C21.99 12.485 21.99 12.485 23 14 C23.99 14 24.98 14 26 14 C25.99363525 14.72590332 25.98727051 15.45180664 25.98071289 16.19970703 C25.97199404 19.50916966 26.01674309 22.81586057 26.0625 26.125 C26.05154297 27.26710937 26.04058594 28.40921875 26.02929688 29.5859375 C26.01787271 35.7589965 26.01787271 35.7589965 28.62060547 41.14355469 C30.34872365 42.62479884 32.02839488 43.86850363 34 45 C32.25 50.75 32.25 50.75 30 53 C22.98397003 52.14785061 18.17332647 45.31127878 14.0625 40.125 C7.25974796 31.25869486 -3.91097359 14.74784226 -2.71484375 3.26171875 C-2.47894531 2.51535156 -2.24304688 1.76898438 -2 1 C-1.34 0.67 -0.68 0.34 0 0 Z " fill="#DBE3F2" transform="translate(101,225)"/>
<path d="M0 0 C1.19012695 0.0009668 1.19012695 0.0009668 2.40429688 0.00195312 C3.22865234 0.01806641 4.05300781 0.03417969 4.90234375 0.05078125 C5.73056641 0.04755859 6.55878906 0.04433594 7.41210938 0.04101562 C13.57271783 0.09615533 13.57271783 0.09615533 15.83984375 2.36328125 C16.01494761 5.01619882 16.07139858 7.56314299 16.03515625 10.21484375 C16.03232635 10.98887543 16.02949646 11.7629071 16.02658081 12.56039429 C16.01537129 15.03651282 15.99026578 17.51227175 15.96484375 19.98828125 C15.95481493 21.66535937 15.94568891 23.34244314 15.9375 25.01953125 C15.91542949 29.13425348 15.88089477 33.24870636 15.83984375 37.36328125 C11.306086 36.30178939 7.25440076 34.40934543 3.0078125 32.51953125 C-0.39306587 31.27827355 -3.57019554 30.75966336 -7.16015625 30.36328125 C-7.24705878 25.92590413 -7.30051551 21.48874491 -7.34765625 17.05078125 C-7.37279297 15.78814453 -7.39792969 14.52550781 -7.42382812 13.22460938 C-7.43349609 12.01611328 -7.44316406 10.80761719 -7.453125 9.5625 C-7.47669067 7.88933716 -7.47669067 7.88933716 -7.50073242 6.18237305 C-7.16015625 3.36328125 -7.16015625 3.36328125 -5.90185547 1.49853516 C-3.76992659 0.10892634 -2.53355126 -0.01040762 0 0 Z " fill="#0C2542" transform="translate(236.16015625,173.63671875)"/>
<path d="M0 0 C0.98484375 -0.00128906 1.9696875 -0.00257813 2.984375 -0.00390625 C4.02078125 -0.00003906 5.0571875 0.00382813 6.125 0.0078125 C7.67960938 0.00201172 7.67960938 0.00201172 9.265625 -0.00390625 C10.25046875 -0.00261719 11.2353125 -0.00132812 12.25 0 C13.16007812 0.00112793 14.07015625 0.00225586 15.0078125 0.00341797 C17.125 0.1328125 17.125 0.1328125 18.125 1.1328125 C18.19705511 2.81890216 18.20886068 4.50781909 18.1875 6.1953125 C18.17847656 7.11441406 18.16945312 8.03351563 18.16015625 8.98046875 C18.14855469 9.69074219 18.13695312 10.40101563 18.125 11.1328125 C17.33996094 11.43574219 16.55492187 11.73867187 15.74609375 12.05078125 C7.86244743 15.19456659 1.14103427 18.0047638 -3.875 25.1328125 C-4.535 25.1328125 -5.195 25.1328125 -5.875 25.1328125 C-5.90386984 21.15366091 -5.92175406 17.17453597 -5.9375 13.1953125 C-5.94587891 12.05900391 -5.95425781 10.92269531 -5.96289062 9.75195312 C-5.96611328 8.67236328 -5.96933594 7.59277344 -5.97265625 6.48046875 C-5.97789307 5.48023682 -5.98312988 4.48000488 -5.98852539 3.44946289 C-5.78163139 -0.7725095 -3.71513421 0.00460445 0 0 Z " fill="#122944" transform="translate(199.875,192.8671875)"/>
<path d="M0 0 C0.66 0.99 1.32 1.98 2 3 C4.30144109 4.07136051 6.6340213 5.07989717 9 6 C9 6.66 9 7.32 9 8 C7.68 8 6.36 8 5 8 C5 8.99 5 9.98 5 11 C0.40754188 10.36215859 0.40754188 10.36215859 -1.75390625 8.44140625 C-4.89828316 6.42353655 -7.01819781 6.87197559 -10.6875 7.25 C-11.84636719 7.35828125 -13.00523437 7.4665625 -14.19921875 7.578125 C-16.89927431 7.70130852 -16.89927431 7.70130852 -18 9 C-20.53049402 9.07313567 -23.03304837 9.09247527 -25.5625 9.0625 C-26.62887695 9.05573242 -26.62887695 9.05573242 -27.71679688 9.04882812 C-29.47790013 9.03700864 -31.23896036 9.01907263 -33 9 C-32.40051642 5.43307272 -32.12480381 5.09360285 -29 2.75 C-25.23704405 0.74361063 -22.01522306 0.69396059 -17.8203125 0.95703125 C-17.21960938 0.97121094 -16.61890625 0.98539063 -16 1 C-15.67 0.67 -15.34 0.34 -15 0 C-9.73791519 -0.907256 -5.2698342 -1.26476021 0 0 Z " fill="#E9900B" transform="translate(238,214)"/>
<path d="M0 0 C0.99 0.495 0.99 0.495 2 1 C1.01 1.495 1.01 1.495 0 2 C0 1.34 0 0.68 0 0 Z M-5 1 C-3.32457024 1.28604898 -1.65614657 1.61781233 0 2 C0.33 3.32 0.66 4.64 1 6 C1.96421875 6.06058594 2.9284375 6.12117187 3.921875 6.18359375 C5.81679687 6.30927734 5.81679687 6.30927734 7.75 6.4375 C9.62945312 6.55931641 9.62945312 6.55931641 11.546875 6.68359375 C15 7 15 7 17.328125 7.66015625 C18.15570313 7.82837891 18.15570313 7.82837891 19 8 C19.66 7.34 20.32 6.68 21 6 C21 5.34 21 4.68 21 4 C22.32 4.66 23.64 5.32 25 6 C24.7215625 7.175625 24.7215625 7.175625 24.4375 8.375 C23.74037734 10.97089775 23.74037734 10.97089775 25 13 C25.99 13.33 26.98 13.66 28 14 C28.495 16.475 28.495 16.475 29 19 C28.5153125 18.61328125 28.030625 18.2265625 27.53125 17.828125 C26.8609375 17.30734375 26.190625 16.7865625 25.5 16.25 C24.8503125 15.73953125 24.200625 15.2290625 23.53125 14.703125 C16.63913903 10.06584046 11.3466704 8.34824236 3 8.5 C2.14921875 8.48453125 1.2984375 8.4690625 0.421875 8.453125 C-8.48653482 8.50777782 -14.72243108 12.08773287 -21.234375 17.984375 C-24.09314004 21.24792093 -25.59784102 24.93189401 -27 29 C-27.33 29 -27.66 29 -28 29 C-27.979375 27.7625 -27.95875 26.525 -27.9375 25.25 C-27.93233319 22.3359175 -28.06984442 19.79046673 -29 17 C-28.34 17 -27.68 17 -27 17 C-27 16.34 -27 15.68 -27 15 C-26.21625 14.938125 -25.4325 14.87625 -24.625 14.8125 C-23.325625 14.4103125 -23.325625 14.4103125 -22 14 C-20.75285597 11.59047977 -20.75285597 11.59047977 -20 9 C-18 7 -18 7 -15.9375 6.5625 C-15.298125 6.376875 -14.65875 6.19125 -14 6 C-13.67 5.01 -13.34 4.02 -13 3 C-12.34 3.33 -11.68 3.66 -11 4 C-11.33 4.66 -11.66 5.32 -12 6 C-10.35 6 -8.7 6 -7 6 C-6.855625 5.360625 -6.71125 4.72125 -6.5625 4.0625 C-6 2 -6 2 -5 1 Z " fill="#E2E4E7" transform="translate(223,204)"/>
<path d="M0 0 C0.33 0 0.66 0 1 0 C1.2475 1.11375 1.495 2.2275 1.75 3.375 C2.61005339 7.04615198 2.61005339 7.04615198 5.125 8.4375 C5.74375 8.623125 6.3625 8.80875 7 9 C7 9.66 7 10.32 7 11 C7.66 11 8.32 11 9 11 C8.125 16.75 8.125 16.75 7 19 C7.66 19 8.32 19 9 19 C6.90591324 27.65555861 3.11688697 35.17227518 -1 43 C-1.33 43 -1.66 43 -2 43 C-1.83757812 41.8553125 -1.67515625 40.710625 -1.5078125 39.53125 C-0.96475175 35.17141244 -0.85101583 30.88910235 -0.875 26.5 C-0.87113281 25.79230469 -0.86726563 25.08460938 -0.86328125 24.35546875 C-0.86981536 20.78130976 -1.04974568 17.3510193 -1.56640625 13.8125 C-1.9656464 10.30206411 -1.86511162 7.89929627 -1.0625 4.5 C-0.86785156 3.6440625 -0.67320312 2.788125 -0.47265625 1.90625 C-0.31667969 1.2771875 -0.16070312 0.648125 0 0 Z " fill="#112A47" transform="translate(267,217)"/>
<path d="M0 0 C0.66 0 1.32 0 2 0 C2.12117188 0.62648437 2.24234375 1.25296875 2.3671875 1.8984375 C2.53476563 2.71570313 2.70234375 3.53296875 2.875 4.375 C3.11863281 5.59316406 3.11863281 5.59316406 3.3671875 6.8359375 C3.86658932 9.18673923 3.86658932 9.18673923 6 11 C8.43252661 11.46162427 8.43252661 11.46162427 11.125 11.625 C12.03507812 11.69976562 12.94515625 11.77453125 13.8828125 11.8515625 C14.58148438 11.90054688 15.28015625 11.94953125 16 12 C16 13.32 16 14.64 16 16 C15.01 15.67 14.02 15.34 13 15 C13 14.34 13 13.68 13 13 C7.73035473 15.63482263 4.02096446 19.79943911 0 24 C-0.66 23.01 -1.32 22.02 -2 21 C-1.34 21 -0.68 21 0 21 C-0.33 20.34 -0.66 19.68 -1 19 C-1.99 19 -2.98 19 -4 19 C-4.66 18.34 -5.32 17.68 -6 17 C-11.00918744 18.47329042 -13.51807722 21.27515238 -17 25 C-17.66 24.67 -18.32 24.34 -19 24 C-18.51789063 23.52949219 -18.03578125 23.05898437 -17.5390625 22.57421875 C-16.90742188 21.95160156 -16.27578125 21.32898438 -15.625 20.6875 C-14.68527344 19.76517578 -14.68527344 19.76517578 -13.7265625 18.82421875 C-11.81913393 16.91187472 -11.81913393 16.91187472 -10 14 C-9.34 14 -8.68 14 -8 14 C-7.34 12.68 -6.68 11.36 -6 10 C-5.34 10 -4.68 10 -4 10 C-3.731875 9.360625 -3.46375 8.72125 -3.1875 8.0625 C-2 6 -2 6 1 5 C0.67 3.35 0.34 1.7 0 0 Z " fill="#E3921E" transform="translate(228,143)"/>
<path d="M0 0 C4.01816341 2.0090817 5.86446495 3.86446495 9 7 C11.61620901 9.07055648 14.29525439 11.04694548 17 13 C13.34714813 17.48304547 8.26859909 19.85385947 3 22 C2.01 22 1.02 22 0 22 C0 14.74 0 7.48 0 0 Z " fill="#0C233D" transform="translate(194,268)"/>
<path d="M0 0 C0.66 0 1.32 0 2 0 C3.92908943 5.23609987 4.98408579 10.53135543 6 16 C6.99 15.34 7.98 14.68 9 14 C10.87070344 30.58353317 10.87070344 30.58353317 6.375 37.5 C5.92125 37.995 5.4675 38.49 5 39 C2.53199953 37.84826645 0.95216435 36.95216435 -1 35 C-0.71597654 31.87574198 -0.08558387 29.22465765 1.03125 26.29296875 C2.14936832 22.49226817 2.29452754 18.98463429 2.25 15.0625 C2.25773437 14.38509766 2.26546875 13.70769531 2.2734375 13.00976562 C2.25530014 8.28045018 1.45941364 4.4419455 0 0 Z " fill="#DDE3EC" transform="translate(256,228)"/>
<path d="M0 0 C7.79800897 1.49028616 13.3144554 8.00108305 18 14 C17.67 14.66 17.34 15.32 17 16 C16.505 15.01 16.505 15.01 16 14 C14.23173046 11.82717431 14.23173046 11.82717431 12.01953125 11.734375 C10.01111857 11.74859385 8.00415878 11.86857975 6 12 C6 12.66 6 13.32 6 14 C6.66 14 7.32 14 8 14 C11.82952114 22.13773242 12.57985875 31.10493701 9.75 39.75 C8 43 8 43 5.890625 43.703125 C5.26671875 43.80109375 4.6428125 43.8990625 4 44 C4.3609375 43.39414062 4.721875 42.78828125 5.09375 42.1640625 C8.52549987 35.96784745 10.08329222 31.07832985 9 24 C7.14879306 18.09927789 2.76823328 14.67488043 -2 11 C-5.06533164 9.46733418 -8.26754272 9.89723529 -11.625 9.9375 C-12.68460938 9.94426758 -12.68460938 9.94426758 -13.765625 9.95117188 C-15.51045275 9.96296125 -17.255237 9.98089676 -19 10 C-18.34 9.01 -17.68 8.02 -17 7 C-13.7421875 6.48828125 -13.7421875 6.48828125 -9.875 6.3125 C-8.59367188 6.24675781 -7.31234375 6.18101562 -5.9921875 6.11328125 C-5.00476563 6.07589844 -4.01734375 6.03851563 -3 6 C-2.67 6.99 -2.34 7.98 -2 9 C1.51190809 10.22969878 1.51190809 10.22969878 5 11 C5 10.01 5 9.02 5 8 C6.32 8 7.64 8 9 8 C9 7.34 9 6.68 9 6 C7.88625 5.7525 6.7725 5.505 5.625 5.25 C2 4 2 4 0.5625 1.875 C0.376875 1.25625 0.19125 0.6375 0 0 Z " fill="#DE9326" transform="translate(238,214)"/>
<path d="M0 0 C3.0625 2 3.0625 2 5 4 C3.65902887 8.38863278 1.97505331 10.65110486 -2 13 C-5.28654547 12.93292764 -7.42113626 12.27419861 -10.375 10.875 C-12 9 -12 9 -12.4375 5.4375 C-12.293125 4.303125 -12.14875 3.16875 -12 2 C-7.98977783 -0.67348144 -4.71558394 -0.71022805 0 0 Z " fill="#D2DCEB" transform="translate(144,137)"/>
<path d="M0 0 C0.52464844 0.3609375 1.04929688 0.721875 1.58984375 1.09375 C9.56162618 5.86886094 17.93889265 6.31852505 27 5 C29.66756969 4.11433863 31.85808903 3.15704819 34.23828125 1.6796875 C36 1 36 1 38.1171875 1.796875 C40.11319112 3.0723296 41.59698078 4.08007896 43 6 C42.72963853 8.97397616 42.14553974 9.85446026 40 12 C36.9609375 11.7578125 36.9609375 11.7578125 33.375 11.125 C32.18648437 10.92132813 30.99796875 10.71765625 29.7734375 10.5078125 C28.40058594 10.25644531 28.40058594 10.25644531 27 10 C27 9.34 27 8.68 27 8 C15.615 7.505 15.615 7.505 4 7 C3.67 5.68 3.34 4.36 3 3 C2.01 3 1.02 3 0 3 C0 2.01 0 1.02 0 0 Z " fill="#DEE4F3" transform="translate(208,270)"/>
<path d="M0 0 C1 1 1 1 1.1875 4.875 C1.14020261 10.28266791 0.61790056 15.62557897 0.0625 21 C-0.06765503 22.27399658 -0.06765503 22.27399658 -0.20043945 23.57373047 C-0.28769287 24.37439941 -0.37494629 25.17506836 -0.46484375 26 C-0.543396 26.721875 -0.62194824 27.44375 -0.70288086 28.1875 C-1 30 -1 30 -2 32 C-4.375 31.6875 -4.375 31.6875 -7 31 C-7.66 30.01 -8.32 29.02 -9 28 C-7.35 28.66 -5.7 29.32 -4 30 C-4 28.35 -4 26.7 -4 25 C-3.34 25 -2.68 25 -2 25 C-2.01160156 24.05898437 -2.02320313 23.11796875 -2.03515625 22.1484375 C-2.04417969 20.90320313 -2.05320313 19.65796875 -2.0625 18.375 C-2.07410156 17.14523438 -2.08570313 15.91546875 -2.09765625 14.6484375 C-2.00863924 11.32276209 -1.63686087 8.25952412 -1 5 C-2.32 4.67 -3.64 4.34 -5 4 C-5 3.34 -5 2.68 -5 2 C-5.83402344 2.144375 -6.66804688 2.28875 -7.52734375 2.4375 C-14.11643939 3.52436114 -20.32443581 4.22629031 -27 4 C-26.34 6.64 -25.68 9.28 -25 12 C-29.6875 8.484375 -29.6875 8.484375 -31 7 C-31 5.68 -31 4.36 -31 3 C-27.71010715 2.48785549 -24.41787138 1.99259936 -21.125 1.5 C-20.2071875 1.35691406 -19.289375 1.21382812 -18.34375 1.06640625 C-12.24541475 0.16453977 -6.16932117 -0.48985587 0 0 Z " fill="#DC9639" transform="translate(253,131)"/>
<path d="M0 0 C-0.33 0.99 -0.66 1.98 -1 3 C-1.66 3 -2.32 3 -3 3 C-3 3.99 -3 4.98 -3 6 C0.89459074 6.21081851 0.89459074 6.21081851 4 5 C6.35188447 5.59793673 8.68925595 6.25881795 11 7 C11 7.33 11 7.66 11 8 C8.03 8.66 5.06 9.32 2 10 C1.67 11.98 1.34 13.96 1 16 C0.67 14.68 0.34 13.36 0 12 C-0.66 12 -1.32 12 -2 12 C-2.33 11.34 -2.66 10.68 -3 10 C-5.50358872 10.48207356 -5.50358872 10.48207356 -8 12 C-9.37967524 15.53514293 -9.37967524 15.53514293 -10 19 C-9.34 19.33 -8.68 19.66 -8 20 C-8.66 20.66 -9.32 21.32 -10 22 C-12.01604923 17.96790154 -11.73843238 13.36026738 -11 9 C-8.59266244 5.01717974 -5.06750729 0 0 0 Z " fill="#182F49" transform="translate(131,129)"/>
<path d="M0 0 C0.66 0 1.32 0 2 0 C2 1.98 2 3.96 2 6 C4.31 5.34 6.62 4.68 9 4 C6.2996378 12.0781048 3.51887092 19.73134805 -1 27 C-1.33 27 -1.66 27 -2 27 C-1.84660156 25.88625 -1.69320313 24.7725 -1.53515625 23.625 C-0.92693771 18.75925164 -0.66688586 13.89607197 -0.4375 9 C-0.39431641 8.12988281 -0.35113281 7.25976562 -0.30664062 6.36328125 C-0.20175782 4.24231781 -0.10049925 2.12117567 0 0 Z " fill="#16263D" transform="translate(267,233)"/>
<path d="M0 0 C0.99 0.66 1.98 1.32 3 2 C3.66 1.67 4.32 1.34 5 1 C5.33 1.99 5.66 2.98 6 4 C8.31 4.33 10.62 4.66 13 5 C13 5.66 13 6.32 13 7 C15.97 7.495 15.97 7.495 19 8 C19 8.66 19 9.32 19 10 C16.73044814 10.22185844 14.45926245 10.42705515 12.1875 10.625 C10.92292969 10.74101562 9.65835938 10.85703125 8.35546875 10.9765625 C5 11 5 11 2 9 C1.34 8.01 0.68 7.02 0 6 C-0.66 6 -1.32 6 -2 6 C-1.125 1.125 -1.125 1.125 0 0 Z " fill="#E9910A" transform="translate(207,260)"/>
<path d="M0 0 C3.70792809 -0.28328822 7.30204313 -0.45269973 11 0 C13.26297338 2.45694253 14 3.6796254 14 7 C11.03 6.505 11.03 6.505 8 6 C8 6.66 8 7.32 8 8 C5.5 9.625 5.5 9.625 3 11 C0.29417212 7.16674383 -0.32613618 4.67461851 0 0 Z " fill="#0C223E" transform="translate(119,165)"/>
<path d="M0 0 C0.495 0.99 0.495 0.99 1 2 C0.525625 2.9075 0.05125 3.815 -0.4375 4.75 C-2.09058399 8.18841471 -2.26810766 10.24649279 -2 14 C-2.99 14 -3.98 14 -5 14 C-5.33 13.34 -5.66 12.68 -6 12 C-6.99 11.67 -7.98 11.34 -9 11 C-9 11.66 -9 12.32 -9 13 C-9.55985596 13.02505615 -10.11971191 13.0501123 -10.6965332 13.07592773 C-13.23541305 13.19203745 -15.77393553 13.3146958 -18.3125 13.4375 C-19.63411133 13.49647461 -19.63411133 13.49647461 -20.98242188 13.55664062 C-22.25375977 13.61948242 -22.25375977 13.61948242 -23.55078125 13.68359375 C-24.33106689 13.72025146 -25.11135254 13.75690918 -25.9152832 13.79467773 C-28.19329101 13.94125263 -28.19329101 13.94125263 -31 15 C-31 15.66 -31 16.32 -31 17 C-32.65 17.33 -34.3 17.66 -36 18 C-32.3465015 12.33670375 -32.3465015 12.33670375 -28.90283203 11.47558594 C-26.44252991 11.3285334 -24.02645072 11.31430221 -21.5625 11.375 C-15.11900964 11.47466729 -11.15949866 11.36513639 -6 7 C-4.10922252 5.14974422 -4.10922252 5.14974422 -2.625 3.25 C-2.12226563 2.63640625 -1.61953125 2.0228125 -1.1015625 1.390625 C-0.73804688 0.93171875 -0.37453125 0.4728125 0 0 Z " fill="#E6DED8" transform="translate(224,170)"/>
<path d="M0 0 C1.1446875 0.99 1.1446875 0.99 2.3125 2 C1.3225 2.33 0.3325 2.66 -0.6875 3 C-1.3475 2.67 -2.0075 2.34 -2.6875 2 C-2.6875 1.34 -2.6875 0.68 -2.6875 0 C-7.3075 0.33 -11.9275 0.66 -16.6875 1 C-17.0175 2.32 -17.3475 3.64 -17.6875 5 C-18.3475 5 -19.0075 5 -19.6875 5 C-19.6875 4.34 -19.6875 3.68 -19.6875 3 C-22.19715614 3.70339566 -22.19715614 3.70339566 -24.6875 5 C-25.57443303 7.04105639 -25.57443303 7.04105639 -25.6875 9 C-26.6775 9 -27.6675 9 -28.6875 9 C-28.6875 10.32 -28.6875 11.64 -28.6875 13 C-29.3475 13 -30.0075 13 -30.6875 13 C-30.58265487 8.7013496 -29.47237212 6.33681023 -26.625 3.25 C-20.17265976 -2.67882379 -7.62212304 -5.08141536 0 0 Z " fill="#E8DDCE" transform="translate(237.6875,225)"/>
<path d="M0 0 C1.62490954 -0.02698189 3.24994633 -0.04638757 4.875 -0.0625 C6.23238281 -0.07990234 6.23238281 -0.07990234 7.6171875 -0.09765625 C10 0 10 0 12 1 C11.67 1.66 11.34 2.32 11 3 C10.44054687 2.97679687 9.88109375 2.95359375 9.3046875 2.9296875 C2.85412955 2.78449809 -3.24352326 3.51550554 -9.60546875 4.5625 C-13.10789536 5.01390596 -16.47266135 5.07171209 -20 5 C-18.6302836 8.99500618 -16.74277578 11.80009492 -14 15 C-15.33333333 14.33333333 -16.66666667 13.66666667 -18 13 C-18.721875 12.773125 -19.44375 12.54625 -20.1875 12.3125 C-22 11 -22 11 -22.75 7.375 C-22.8325 6.26125 -22.915 5.1475 -23 4 C-22.2575 3.855625 -21.515 3.71125 -20.75 3.5625 C-18.15321159 3.07806632 -18.15321159 3.07806632 -16.28125 2.46875 C-13.08456757 1.81189745 -10.0092261 1.90732198 -6.75 1.9375 C-4.85507813 1.95103516 -4.85507813 1.95103516 -2.921875 1.96484375 C-1.95765625 1.97644531 -0.9934375 1.98804688 0 2 C0 1.34 0 0.68 0 0 Z " fill="#EADED0" transform="translate(242,129)"/>
<path d="M0 0 C0 3.35279018 -0.35469584 5.08332445 -2 8 C-7.59998603 10.64675957 -13.6139998 10.44313599 -19.6875 10.625 C-20.73228516 10.66367188 -21.77707031 10.70234375 -22.85351562 10.7421875 C-26.57085293 10.87623186 -30.28007771 11 -34 11 C-32.28567378 8.85364803 -31.44353527 8.06129291 -28.67504883 7.67871094 C-27.77810303 7.69708008 -26.88115723 7.71544922 -25.95703125 7.734375 C-24.96509766 7.73050781 -23.97316406 7.72664062 -22.95117188 7.72265625 C-20.87805745 7.74071699 -18.80501335 7.77427679 -16.73242188 7.82421875 C-9.75699649 7.76117423 -6.27562063 6.50024739 -1.3347168 1.50488281 C-0.89426025 1.00827148 -0.45380371 0.51166016 0 0 Z " fill="#E8D0B0" transform="translate(170,206)"/>
<path d="M0 0 C0.33 0 0.66 0 1 0 C1 23.43 1 46.86 1 71 C-0.32 70.34 -1.64 69.68 -3 69 C-2.01 68.01 -2.01 68.01 -1 67 C-0.66715709 64.08625621 -0.66715709 64.08625621 -0.68115234 60.62255859 C-0.67110672 59.96877731 -0.6610611 59.31499603 -0.65071106 58.6414032 C-0.61978211 56.47709038 -0.60281746 54.31290177 -0.5859375 52.1484375 C-0.5672336 50.64912846 -0.54766078 49.14983002 -0.5272522 47.65054321 C-0.47584247 43.70176438 -0.43626432 39.75295137 -0.39910889 35.80401611 C-0.35912444 31.77550749 -0.30800683 27.74714206 -0.2578125 23.71875 C-0.16094864 15.81259767 -0.0765776 7.90637471 0 0 Z " fill="#1C2D42" transform="translate(183,223)"/>
<path d="M0 0 C1.32 0.66 2.64 1.32 4 2 C3.814375 2.78375 3.62875 3.5675 3.4375 4.375 C2.74037734 6.97089775 2.74037734 6.97089775 4 9 C4.99 9.33 5.98 9.66 7 10 C7.495 12.475 7.495 12.475 8 15 C7.5153125 14.61328125 7.030625 14.2265625 6.53125 13.828125 C4.38961303 12.16423782 2.20993461 10.5719361 0 9 C-0.56589844 8.58621094 -1.13179687 8.17242187 -1.71484375 7.74609375 C-8.59216739 3.5198926 -17.17797361 4.17777333 -25 4 C-25 3.67 -25 3.34 -25 3 C-21.9166866 2.97088679 -18.83340875 2.95316318 -15.75 2.9375 C-14.87730469 2.92912109 -14.00460938 2.92074219 -13.10546875 2.91210938 C-12.26113281 2.90888672 -11.41679687 2.90566406 -10.546875 2.90234375 C-9.77182617 2.89710693 -8.99677734 2.89187012 -8.19824219 2.88647461 C-6 3 -6 3 -3.84082031 3.63110352 C-3.23334961 3.75283936 -2.62587891 3.8745752 -2 4 C-1.34 3.34 -0.68 2.68 0 2 C0 1.34 0 0.68 0 0 Z " fill="#D7E0EA" transform="translate(244,208)"/>
<path d="M0 0 C0.33 0.99 0.66 1.98 1 3 C0.3503125 3.5878125 0.3503125 3.5878125 -0.3125 4.1875 C-2.14560261 6.02238902 -2.14560261 6.02238902 -3.5625 8.6875 C-4.036875 9.450625 -4.51125 10.21375 -5 11 C-5.66 11 -6.32 11 -7 11 C-7.309375 11.86625 -7.309375 11.86625 -7.625 12.75 C-9.60171756 15.98462874 -11.64214101 17.25888793 -15 19 C-17.76497381 19.31827037 -20.20236613 19.19294027 -23 19 C-23.66 17.35 -24.32 15.7 -25 14 C-24.62875 14.495 -24.2575 14.99 -23.875 15.5 C-22.02668303 17.18964009 -22.02668303 17.18964009 -19.3125 17.6875 C-14.05276404 16.59585669 -11.45691289 12.92891446 -8 9 C-7.3296875 8.24847656 -6.659375 7.49695313 -5.96875 6.72265625 C-4.75295629 5.34492281 -3.54503883 3.96017048 -2.34765625 2.56640625 C-1.59150381 1.68751602 -0.81982149 0.81982149 0 0 Z " fill="#EAD9C7" transform="translate(135,218)"/>
<path d="M0 0 C2.71486934 3.97610786 2.22440753 8.13901977 2.125 12.75 C2.11597656 13.54277344 2.10695313 14.33554688 2.09765625 15.15234375 C2.07417012 17.10169281 2.03830137 19.05088575 2 21 C1.34 21 0.68 21 0 21 C-0.33 18.03 -0.66 15.06 -1 12 C-1.99 12.66 -2.98 13.32 -4 14 C-4 11.36 -4 8.72 -4 6 C-3.34 6 -2.68 6 -2 6 C-2 5.34 -2 4.68 -2 4 C-1.34 4 -0.68 4 0 4 C0 2.68 0 1.36 0 0 Z " fill="#CBD5E7" transform="translate(265,231)"/>
<path d="M0 0 C0 2.62113708 -0.31292445 4.50935112 -1 7 C-1.73637695 7.00410889 -2.47275391 7.00821777 -3.23144531 7.01245117 C-6.57177695 7.04536992 -9.91028051 7.11601314 -13.25 7.1875 C-14.98830078 7.19620117 -14.98830078 7.19620117 -16.76171875 7.20507812 C-23.31664174 7.1590809 -23.31664174 7.1590809 -28.65625 10.4375 C-29.0996875 11.283125 -29.543125 12.12875 -30 13 C-32.25 14.8125 -32.25 14.8125 -34 16 C-34.66 15.67 -35.32 15.34 -36 15 C-29.04071582 6.30089478 -29.04071582 6.30089478 -24.60571289 5.64697266 C-23.7368042 5.6526123 -22.86789551 5.65825195 -21.97265625 5.6640625 C-21.01552734 5.65117187 -20.05839844 5.63828125 -19.07226562 5.625 C-17.06964622 5.625 -15.06701134 5.63278232 -13.06445312 5.6484375 C-6.8433232 5.68396864 -6.8433232 5.68396864 -1.80859375 2.4609375 C-1.21175781 1.64882812 -0.61492187 0.83671875 0 0 Z " fill="#DA9638" transform="translate(161,196)"/>
<path d="M0 0 C0.52464844 0.3609375 1.04929688 0.721875 1.58984375 1.09375 C7.32913819 4.53159692 12.12167222 5.47176022 18.6875 5.4375 C19.39962646 5.43492187 20.11175293 5.43234375 20.84545898 5.4296875 C25.5323963 5.29914729 29.54491216 4.45388843 34 3 C34 3.99 34 4.98 34 6 C31.18175808 7.40912096 28.82748718 7.11183553 25.6796875 7.09765625 C24.42285156 7.09443359 23.16601562 7.09121094 21.87109375 7.08789062 C20.55238281 7.07951172 19.23367187 7.07113281 17.875 7.0625 C16.53515789 7.05748489 15.195314 7.05292201 13.85546875 7.04882812 C10.57026794 7.03701086 7.28515603 7.02053617 4 7 C3.67 5.68 3.34 4.36 3 3 C2.01 3 1.02 3 0 3 C0 2.01 0 1.02 0 0 Z " fill="#E9DFCF" transform="translate(208,270)"/>
<path d="M0 0 C-0.15847412 0.69762451 -0.31694824 1.39524902 -0.48022461 2.11401367 C-1.03009555 5.16710168 -1.20951883 8.07604597 -1.31640625 11.17578125 C-1.35830078 12.33271484 -1.40019531 13.48964844 -1.44335938 14.68164062 C-1.48267578 15.87982422 -1.52199219 17.07800781 -1.5625 18.3125 C-1.62727539 20.1387793 -1.62727539 20.1387793 -1.69335938 22.00195312 C-1.79921496 25.0011947 -1.90129726 28.00051591 -2 31 C-2.33 31 -2.66 31 -3 31 C-3.33 23.08 -3.66 15.16 -4 7 C-5.32 6.34 -6.64 5.68 -8 5 C-8.33 4.01 -8.66 3.02 -9 2 C-2.25 0 -2.25 0 0 0 Z " fill="#C8D3E3" transform="translate(130,233)"/>
<path d="M0 0 C0.66 0 1.32 0 2 0 C3.73294811 4.57384664 4.47158762 8.8955111 4.75 13.75 C4.81465454 14.79800781 4.81465454 14.79800781 4.88061523 15.8671875 C5.14477233 21.46809302 4.57157603 26.59689565 3 32 C2.34 32 1.68 32 1 32 C1.33 33.65 1.66 35.3 2 37 C1.01 36.34 0.02 35.68 -1 35 C-0.5631692 31.94218438 -0.06877846 29.18244667 1.0234375 26.28515625 C2.15253306 22.4868788 2.29452774 18.98465153 2.25 15.0625 C2.25773437 14.38509766 2.26546875 13.70769531 2.2734375 13.00976562 C2.25530014 8.28045018 1.45941364 4.4419455 0 0 Z " fill="#EDDBC5" transform="translate(256,228)"/>
<path d="M0 0 C0.66 0.33 1.32 0.66 2 1 C0.29465748 3.1144985 -0.59309757 3.92950518 -3.3125 4.40063477 C-4.199375 4.41408936 -5.08625 4.42754395 -6 4.44140625 C-6.969375 4.46783203 -7.93875 4.49425781 -8.9375 4.52148438 C-9.948125 4.53501953 -10.95875 4.54855469 -12 4.5625 C-14.00016502 4.59694162 -16.0002107 4.63955001 -18 4.69140625 C-18.886875 4.70373291 -19.77375 4.71605957 -20.6875 4.72875977 C-23.27394926 4.85474815 -23.27394926 4.85474815 -26 7 C-26 5.68 -26 4.36 -26 3 C-22.69384127 0.79589418 -21.75887584 0.76817078 -17.9296875 0.83984375 C-16.95128906 0.85080078 -15.97289062 0.86175781 -14.96484375 0.87304688 C-13.94519531 0.89431641 -12.92554688 0.91558594 -11.875 0.9375 C-9.85163113 0.97177287 -7.82818728 1.00194976 -5.8046875 1.02734375 C-4.45866455 1.05429321 -4.45866455 1.05429321 -3.08544922 1.08178711 C-1.01044027 1.23672481 -1.01044027 1.23672481 0 0 Z " fill="#E9D9C0" transform="translate(157,198)"/>
<path d="M0 0 C3.49823043 2.33215362 3.9218403 3.01910264 5 7 C5.8278959 14.1792167 4.66679924 18.81227629 1 25 C0.67 23.68 0.34 22.36 0 21 C0.66 21 1.32 21 2 21 C1.835 19.700625 1.67 18.40125 1.5 17.0625 C1.03721717 12.99386764 0.94521926 9.03547829 1.0625 4.9453125 C1.08565539 2.78096515 1.08565539 2.78096515 0 0 Z " fill="#EAD7C4" transform="translate(243,231)"/>
<path d="M0 0 C3.12482562 -0.08687496 6.24934246 -0.14034568 9.375 -0.1875 C10.70917969 -0.22520508 10.70917969 -0.22520508 12.0703125 -0.26367188 C13.34648437 -0.27817383 13.34648437 -0.27817383 14.6484375 -0.29296875 C15.82672119 -0.31653442 15.82672119 -0.31653442 17.02880859 -0.34057617 C17.67930176 -0.22818604 18.32979492 -0.1157959 19 0 C21.51314157 3.76971235 21.15974372 5.58627894 20.9765625 10.07421875 C20.95153656 10.7580513 20.92651062 11.44188385 20.90072632 12.1464386 C20.81865275 14.32730629 20.72201736 16.50725097 20.625 18.6875 C20.56674731 20.16728019 20.5094443 21.64709809 20.453125 23.12695312 C20.3130945 26.75180422 20.15999996 30.37596924 20 34 C19.67 34 19.34 34 19 34 C19 24.1 19 14.2 19 4 C18.34 4 17.68 4 17 4 C17 3.01 17 2.02 17 1 C11.39 1 5.78 1 0 1 C0 0.67 0 0.34 0 0 Z " fill="#253952" transform="translate(130,236)"/>
<path d="M0 0 C0.41507813 0.3609375 0.83015625 0.721875 1.2578125 1.09375 C7.77184172 5.99971343 14.10704547 5.71073998 22 5 C24.68456006 4.60164593 26.49526464 4.10674353 29 3 C29.33 2.01 29.66 1.02 30 0 C30.33 0.99 30.66 1.98 31 3 C25.21455085 6.93600229 20.67459168 7.6927739 13.75 7.875 C12.40421875 7.94460938 12.40421875 7.94460938 11.03125 8.015625 C4.41000707 8.27333805 4.41000707 8.27333805 1 6 C0.3125 2.875 0.3125 2.875 0 0 Z " fill="#DC9732" transform="translate(211,258)"/>
<path d="M0 0 C1.32 0 2.64 0 4 0 C4 1.65 4 3.3 4 5 C3.34 5 2.68 5 2 5 C2 5.99 2 6.98 2 8 C0.02 8 -1.96 8 -4 8 C-4 7.34 -4 6.68 -4 6 C-4.66 6 -5.32 6 -6 6 C-6 4.68 -6 3.36 -6 2 C-4.02 2 -2.04 2 0 2 C0 1.34 0 0.68 0 0 Z " fill="#EA900A" transform="translate(117,226)"/>
<path d="M0 0 C5.75 -0.125 5.75 -0.125 8 1 C8.625 3.0625 8.625 3.0625 9 5 C6.625 6.0625 6.625 6.0625 4 7 C3.34 6.67 2.68 6.34 2 6 C-0.204364 5.77049681 -2.41392173 5.58924067 -4.625 5.4375 C-5.81351563 5.35371094 -7.00203125 5.26992187 -8.2265625 5.18359375 C-9.59941406 5.09271484 -9.59941406 5.09271484 -11 5 C-11 4.67 -11 4.34 -11 4 C-7.37 4 -3.74 4 0 4 C0 2.68 0 1.36 0 0 Z " fill="#DEE4EF" transform="translate(236,206)"/>
<path d="M0 0 C0.92361328 -0.01224609 1.84722656 -0.02449219 2.79882812 -0.03710938 C3.68119141 -0.03904297 4.56355469 -0.04097656 5.47265625 -0.04296875 C6.280979 -0.04707764 7.08930176 -0.05118652 7.92211914 -0.05541992 C9.9375 0.1875 9.9375 0.1875 11.9375 2.1875 C10.40029297 2.27837891 10.40029297 2.27837891 8.83203125 2.37109375 C7.47134305 2.45555026 6.11066657 2.54019567 4.75 2.625 C4.07646484 2.66431641 3.40292969 2.70363281 2.70898438 2.74414062 C-0.20156511 2.92871206 -3.01300398 3.1776008 -5.875 3.75 C-8.52121048 4.2792421 -10.47110563 3.85385855 -13.0625 3.1875 C-13.0625 2.5275 -13.0625 1.8675 -13.0625 1.1875 C-8.72749617 -0.25750128 -4.54030913 0.00318172 0 0 Z " fill="#E0932C" transform="translate(226.0625,211.8125)"/>
<path d="M0 0 C0.66 0 1.32 0 2 0 C1.96519531 1.37671875 1.96519531 1.37671875 1.9296875 2.78125 C1.82987885 9.56823816 1.92618512 15.5193285 4 22 C3.01 22 2.02 22 1 22 C-1.59745162 15.18168951 -1.41638909 8.22386659 -1 1 C-0.67 0.67 -0.34 0.34 0 0 Z " fill="#DF9330" transform="translate(205,234)"/>
<path d="M0 0 C0.99 0 1.98 0 3 0 C0.94141895 4.56116978 -1.9999088 7.99372028 -6 11 C-9.4375 11.4375 -9.4375 11.4375 -12 11 C-12.66 9.68 -13.32 8.36 -14 7 C-13.34 7 -12.68 7 -12 7 C-12 7.66 -12 8.32 -12 9 C-10.02 9 -8.04 9 -6 9 C-6 8.01 -6 7.02 -6 6 C-5.34 6 -4.68 6 -4 6 C-3.67 4.68 -3.34 3.36 -3 2 C-2.01 2 -1.02 2 0 2 C0 1.34 0 0.68 0 0 Z " fill="#DD9330" transform="translate(125,225)"/>
<path d="M0 0 C0.99 0.495 0.99 0.495 2 1 C1.67 7.27 1.34 13.54 1 20 C5.44607497 18.22157001 6.9797308 17.35585467 10 14 C10.33 14.66 10.66 15.32 11 16 C11.66 16.33 12.32 16.66 13 17 C11.39967863 17.84069415 9.79458829 18.67231505 8.1875 19.5 C7.29417969 19.9640625 6.40085938 20.428125 5.48046875 20.90625 C3 22 3 22 0 22 C0 14.74 0 7.48 0 0 Z " fill="#3B4B5F" transform="translate(194,268)"/>
<path d="M0 0 C2.31 0 4.62 0 7 0 C1.29374655 4.64953985 -3.55313104 5.32261444 -10.6875 5.25 C-11.84475586 5.26160156 -11.84475586 5.26160156 -13.02539062 5.2734375 C-18.74654908 5.25345092 -18.74654908 5.25345092 -21 3 C-14.4 3 -7.8 3 -1 3 C-0.67 2.01 -0.34 1.02 0 0 Z " fill="#DC9E45" transform="translate(237,271)"/>
<path d="M0 0 C0.66 0.33 1.32 0.66 2 1 C1.67 1.66 1.34 2.32 1 3 C0.44014404 3.02505615 -0.11971191 3.0501123 -0.6965332 3.07592773 C-3.23541305 3.19203745 -5.77393553 3.3146958 -8.3125 3.4375 C-9.63411133 3.49647461 -9.63411133 3.49647461 -10.98242188 3.55664062 C-12.25375977 3.61948242 -12.25375977 3.61948242 -13.55078125 3.68359375 C-14.72120972 3.73858032 -14.72120972 3.73858032 -15.9152832 3.79467773 C-18.19329101 3.94125263 -18.19329101 3.94125263 -21 5 C-21 5.66 -21 6.32 -21 7 C-22.65 7.33 -24.3 7.66 -26 8 C-22.38070403 2.36583822 -22.38070403 2.36583822 -18.83837891 1.42724609 C-16.31607884 1.22152115 -13.84299586 1.16652377 -11.3125 1.1875 C-9.60021294 1.16331156 -7.88796491 1.13611484 -6.17578125 1.10546875 C-5.42208252 1.10699951 -4.66838379 1.10853027 -3.8918457 1.11010742 C-1.91044856 1.11959487 -1.91044856 1.11959487 0 0 Z " fill="#EEDEC9" transform="translate(214,180)"/>
<path d="M0 0 C1.32 0.99 2.64 1.98 4 3 C3.34 3 2.68 3 2 3 C1.67 3.66 1.34 4.32 1 5 C1.33 5.33 1.66 5.66 2 6 C2.36162029 7.32594105 2.69728039 8.65938457 3 10 C-0.81684226 8.44499019 -3.19195732 5.96404505 -6 3 C-4.02 2.01 -2.04 1.02 0 0 Z " fill="#CFD9E6" transform="translate(204,268)"/>
<path d="M0 0 C0 0.66 0 1.32 0 2 C-0.639375 2.2475 -1.27875 2.495 -1.9375 2.75 C-4.18741541 3.81562433 -4.18741541 3.81562433 -4.75 6.125 C-4.8325 6.74375 -4.915 7.3625 -5 8 C-6.65 8.33 -8.3 8.66 -10 9 C-10.33 10.32 -10.66 11.64 -11 13 C-12.65 13.33 -14.3 13.66 -16 14 C-12.86792618 10.25678983 -9.69171033 6.58550652 -6.3125 3.0625 C-5.75175781 2.47597656 -5.19101563 1.88945312 -4.61328125 1.28515625 C-3 0 -3 0 0 0 Z " fill="#ECD8BE" transform="translate(241,156)"/>
<path d="M0 0 C-0.1875 1.875 -0.1875 1.875 -1 4 C-2.65697379 4.69040574 -4.3255761 5.3530635 -6 6 C-8.77152212 8.52056045 -8.77152212 8.52056045 -11 11 C-11.99 10.67 -12.98 10.34 -14 10 C-4.57142857 0 -4.57142857 0 0 0 Z " fill="#CED8E7" transform="translate(210,207)"/>
<path d="M0 0 C0.66 0.33 1.32 0.66 2 1 C2.33 1.99 2.66 2.98 3 4 C6.43515002 4.62457273 9.49064814 5 13 5 C13 6.32 13 7.64 13 9 C9.79810278 9.48028458 7.67170359 9.39641523 4.85546875 7.734375 C-0.69179799 3.61640401 -0.69179799 3.61640401 -2 1 C-1.34 0.67 -0.68 0.34 0 0 Z " fill="#DF9027" transform="translate(207,265)"/>
<path d="M0 0 C0.66 0 1.32 0 2 0 C2.33 0.66 2.66 1.32 3 2 C3.928125 2.2165625 3.928125 2.2165625 4.875 2.4375 C7.5421477 3.14350968 8.41346148 3.7335164 10 6 C10.6875 9.6875 10.6875 9.6875 11 13 C7.09674955 9.21155103 3.3553356 5.289295 0 1 C0 0.67 0 0.34 0 0 Z " fill="#DC8E24" transform="translate(250,275)"/>
<path d="M0 0 C0.66 0 1.32 0 2 0 C2 0.66 2 1.32 2 2 C2.99 2.33 3.98 2.66 5 3 C3.8572081 4.16964602 2.71068285 5.33564556 1.5625 6.5 C0.92441406 7.1496875 0.28632813 7.799375 -0.37109375 8.46875 C-2 10 -2 10 -3 10 C-3.2295711 6.63295715 -3.33943529 4.58629732 -1.625 1.625 C-1.08875 1.08875 -0.5525 0.5525 0 0 Z " fill="#E7DDD8" transform="translate(172,178)"/>
<path d="M0 0 C2.31 0.33 4.62 0.66 7 1 C6.01 1.495 6.01 1.495 5 2 C4.26924352 4.3140622 3.59861742 6.64828869 3 9 C2.67 8.34 2.34 7.68 2 7 C-0.64 7 -3.28 7 -6 7 C-6 6.67 -6 6.34 -6 6 C-4.02 5.34 -2.04 4.68 0 4 C0 2.68 0 1.36 0 0 Z " fill="#CEDAEB" transform="translate(128,158)"/>
<path d="M0 0 C0.33 0 0.66 0 1 0 C1.02689449 2.95839355 1.04678741 5.91654427 1.0625 8.875 C1.07087891 9.71675781 1.07925781 10.55851563 1.08789062 11.42578125 C1.09111328 12.23144531 1.09433594 13.03710938 1.09765625 13.8671875 C1.10289307 14.61081543 1.10812988 15.35444336 1.11352539 16.12060547 C1 18 1 18 0 20 C-0.66 20 -1.32 20 -2 20 C-1.47594437 13.30992818 -0.89536075 6.6512513 0 0 Z " fill="#EAD6BD" transform="translate(254,134)"/>
<path d="M0 0 C1.35439668 2.70879335 1.06501451 5.00933268 1 8 C-0.98 8 -2.96 8 -5 8 C-5.33 9.32 -5.66 10.64 -6 12 C-6.375 9.375 -6.375 9.375 -6 6 C-4.19946381 3.66246179 -2.2392198 1.95931733 0 0 Z " fill="#DF9330" transform="translate(116,220)"/>
<path d="M0 0 C0.144375 0.61875 0.28875 1.2375 0.4375 1.875 C0.93152225 4.03258322 0.93152225 4.03258322 2 6 C1.67 6.66 1.34 7.32 1 8 C-1.97 7.67 -4.94 7.34 -8 7 C-7.236875 6.401875 -6.47375 5.80375 -5.6875 5.1875 C-3.6516425 3.53040668 -1.8021721 1.89702326 0 0 Z " fill="#CED7E8" transform="translate(158,175)"/>
<path d="M0 0 C3.04190863 -0.05421223 6.08283999 -0.09377548 9.125 -0.125 C9.9809375 -0.14175781 10.836875 -0.15851563 11.71875 -0.17578125 C16.56587293 -0.21306681 20.44707905 0.10419357 25 2 C25 2.99 25 3.98 25 5 C19.25 3.125 19.25 3.125 17 2 C14.12089412 1.76725791 11.25853505 1.58027243 8.375 1.4375 C7.57320312 1.39431641 6.77140625 1.35113281 5.9453125 1.30664062 C3.9637489 1.20048543 1.98189729 1.09973145 0 1 C0 0.67 0 0.34 0 0 Z " fill="#E8D0B2" transform="translate(219,211)"/>
<path d="M0 0 C3.63 0 7.26 0 11 0 C11.99 1.98 12.98 3.96 14 6 C11.69 5.34 9.38 4.68 7 4 C7 3.34 7 2.68 7 2 C4.03 1.505 4.03 1.505 1 1 C1 2.65 1 4.3 1 6 C0.67 6 0.34 6 0 6 C0 4.02 0 2.04 0 0 Z " fill="#31445A" transform="translate(119,165)"/>
<path d="M0 0 C0.66 0 1.32 0 2 0 C2 0.66 2 1.32 2 2 C2.99 2 3.98 2 5 2 C4.67 4.31 4.34 6.62 4 9 C3.01 8.67 2.02 8.34 1 8 C0.67 6.35 0.34 4.7 0 3 C-0.66 3 -1.32 3 -2 3 C-1 1 -1 1 0 0 Z " fill="#D7E0F0" transform="translate(206,271)"/>
<path d="M0 0 C-2.97 2.64 -5.94 5.28 -9 8 C-10 4 -10 4 -10 2 C-8.71211992 1.46987262 -7.41953322 0.9511671 -6.125 0.4375 C-5.40570313 0.14746094 -4.68640625 -0.14257812 -3.9453125 -0.44140625 C-2 -1 -2 -1 0 0 Z " fill="#091936" transform="translate(246,284)"/>
<path d="M0 0 C0.66 0 1.32 0 2 0 C2 1.98 2 3.96 2 6 C3.32 5.67 4.64 5.34 6 5 C6.33 5.66 6.66 6.32 7 7 C6.34 7 5.68 7 5 7 C4.71125 7.639375 4.4225 8.27875 4.125 8.9375 C3 11 3 11 1 12 C-0.3271261 8.0186217 -0.06915913 4.14954773 0 0 Z " fill="#092139" transform="translate(267,233)"/>
<path d="M0 0 C2.88689962 1.11750953 5.16150909 2.48417034 7 5 C6.8125 7.125 6.8125 7.125 6 9 C5.01 9.495 5.01 9.495 4 10 C4 9.01 4 8.02 4 7 C3.34 6.67 2.68 6.34 2 6 C2 5.01 2 4.02 2 3 C0.68 2.34 -0.64 1.68 -2 1 C-1.34 0.67 -0.68 0.34 0 0 Z " fill="#E5D7BF" transform="translate(244,271)"/>
<path d="M0 0 C0.33 0.99 0.66 1.98 1 3 C1.99 3.33 2.98 3.66 4 4 C3.01 4.495 3.01 4.495 2 5 C1.26924352 7.3140622 0.59861742 9.64828869 0 12 C0.66 12.33 1.32 12.66 2 13 C1.34 13.66 0.68 14.32 0 15 C-1.30459914 12.39080172 -1.1326594 10.41057385 -1.125 7.5 C-1.12757812 6.5203125 -1.13015625 5.540625 -1.1328125 4.53125 C-1 2 -1 2 0 0 Z " fill="#31435B" transform="translate(121,136)"/>
<path d="M0 0 C0.79664063 0.07863281 1.59328125 0.15726562 2.4140625 0.23828125 C3.06117188 0.38652344 3.70828125 0.53476563 4.375 0.6875 C4.705 1.3475 5.035 2.0075 5.375 2.6875 C2.01131382 3.80872873 -0.20399483 3.45722616 -3.625 2.6875 C-4.945 2.6875 -6.265 2.6875 -7.625 2.6875 C-7.625 2.0275 -7.625 1.3675 -7.625 0.6875 C-4.59335415 -0.32304862 -3.10749249 -0.3390912 0 0 Z " fill="#0A1C33" transform="translate(181.625,80.3125)"/>
<path d="M0 0 C6.95230941 -0.44534366 11.59696035 -0.67289916 17 4 C16.01 4.33 15.02 4.66 14 5 C13.34 4.67 12.68 4.34 12 4 C12 3.34 12 2.68 12 2 C8.04 1.67 4.08 1.34 0 1 C0 0.67 0 0.34 0 0 Z " fill="#EFDEC5" transform="translate(223,223)"/>
<path d="M0 0 C2.6015625 -0.29296875 2.6015625 -0.29296875 5.625 -0.1875 C7.12933594 -0.14689453 7.12933594 -0.14689453 8.6640625 -0.10546875 C9.43492187 -0.07066406 10.20578125 -0.03585938 11 0 C11.33 0.66 11.66 1.32 12 2 C7.38 2.33 2.76 2.66 -2 3 C-1.34 2.01 -0.68 1.02 0 0 Z " fill="#DA9F4C" transform="translate(221,221)"/>
<path d="M0 0 C0.66 0.33 1.32 0.66 2 1 C1.67 3.31 1.34 5.62 1 8 C-0.65 7.67 -2.3 7.34 -4 7 C-3.43628586 3.73045798 -2.50037734 2.17424117 0 0 Z " fill="#E99108" transform="translate(227,151)"/>
<path d="M0 0 C0.66 0 1.32 0 2 0 C1.67 0.99 1.34 1.98 1 3 C1.66 3.66 2.32 4.32 3 5 C1.68 6.32 0.36 7.64 -1 9 C-1 8.01 -1 7.02 -1 6 C-1.66 6 -2.32 6 -3 6 C-2.42655063 3.13275314 -2.1385485 2.1385485 0 0 Z " fill="#E5E0E3" transform="translate(181,168)"/>
<path d="M0 0 C1.32 0.33 2.64 0.66 4 1 C2.39441516 2.92536938 1.52230522 3.91074167 -0.99291992 4.34057617 C-1.73131104 4.32486572 -2.46970215 4.30915527 -3.23046875 4.29296875 C-4.03291016 4.28330078 -4.83535156 4.27363281 -5.66210938 4.26367188 C-6.49548828 4.23853516 -7.32886719 4.21339844 -8.1875 4.1875 C-9.03248047 4.17396484 -9.87746094 4.16042969 -10.74804688 4.14648438 C-12.83230384 4.11115799 -14.91623277 4.05735139 -17 4 C-17 3.67 -17 3.34 -17 3 C-11.39 3 -5.78 3 0 3 C0 2.01 0 1.02 0 0 Z " fill="#F4DDC4" transform="translate(207,165)"/>
<path d="M0 0 C0 0.66 0 1.32 0 2 C-1.57421875 3.5078125 -1.57421875 3.5078125 -3.6875 5.125 C-4.37199219 5.66382813 -5.05648437 6.20265625 -5.76171875 6.7578125 C-8.37932659 8.21051633 -10.05175015 8.23751225 -13 8 C-3.28571429 0 -3.28571429 0 0 0 Z " fill="#1F334A" transform="translate(226,285)"/>
<path d="M0 0 C2.31 0.33 4.62 0.66 7 1 C7 1.66 7 2.32 7 3 C10.96 3 14.92 3 19 3 C19 3.33 19 3.66 19 4 C16.77144426 4.0814222 14.54202345 4.13938079 12.3125 4.1875 C10.45044922 4.23970703 10.45044922 4.23970703 8.55078125 4.29296875 C4.80907731 3.9842473 2.96217879 3.24853724 0 1 C0 0.67 0 0.34 0 0 Z " fill="#EED6BC" transform="translate(214,260)"/>
<path d="M0 0 C0.66 0 1.32 0 2 0 C2.43489791 5.30575444 2.43489791 5.30575444 2 8 C-0.3125 10.0625 -0.3125 10.0625 -3 11 C-3.99 10.67 -4.98 10.34 -6 10 C-5.34 10 -4.68 10 -4 10 C-3.731875 9.360625 -3.46375 8.72125 -3.1875 8.0625 C-2 6 -2 6 1 5 C0.67 3.35 0.34 1.7 0 0 Z " fill="#DB9C3F" transform="translate(228,143)"/>
<path d="M0 0 C1.65 0.33 3.3 0.66 5 1 C2.08292101 3.91707899 -1.0522314 4.88789821 -5.171875 5.125 C-7.11503011 5.125 -9.05799913 5.06696555 -11 5 C-11 4.67 -11 4.34 -11 4 C-5.555 3.01 -5.555 3.01 0 2 C0 1.34 0 0.68 0 0 Z " fill="#04142E" transform="translate(190,314)"/>
<path d="M0 0 C0.99 0.33 1.98 0.66 3 1 C5.63804589 0.60602665 5.63804589 0.60602665 8 0 C4.81404865 2.63978826 1.69029454 5.10498388 -2 7 C-2.66 6.67 -3.32 6.34 -4 6 C-3.525625 5.38125 -3.05125 4.7625 -2.5625 4.125 C-0.97582559 2.09294454 -0.97582559 2.09294454 0 0 Z " fill="#06192F" transform="translate(218,299)"/>
<path d="M0 0 C0 3.30941204 -0.40339294 5.11090151 -2 8 C-4.625 8.8125 -4.625 8.8125 -7 9 C-5.03681826 5.46627288 -2.95929119 2.75520215 0 0 Z " fill="#EBDDD2" transform="translate(170,206)"/>
<path d="M0 0 C0.33 0.66 0.66 1.32 1 2 C1.721875 1.67 2.44375 1.34 3.1875 1 C6.01697427 -0.00603529 8.02895466 -0.16977402 11 0 C8.83250997 2.49261353 7.335283 3.7141186 4 4 C0.75 3.0625 0.75 3.0625 -2 2 C-1.34 1.34 -0.68 0.68 0 0 Z " fill="#21364E" transform="translate(131,156)"/>
<path d="M0 0 C-0.33 0.99 -0.66 1.98 -1 3 C-3.97 3 -6.94 3 -10 3 C-10 2.34 -10 1.68 -10 1 C-6.52674819 -0.1577506 -3.63932552 -0.06866652 0 0 Z " fill="#C9D6E9" transform="translate(146,170)"/>
<path d="M0 0 C0.66 0 1.32 0 2 0 C2 2.31 2 4.62 2 7 C-0.375 6.6875 -0.375 6.6875 -3 6 C-3.66 5.01 -4.32 4.02 -5 3 C-2.525 3.99 -2.525 3.99 0 5 C0 3.35 0 1.7 0 0 Z " fill="#D9912E" transform="translate(249,156)"/>
<path d="M0 0 C6.57142857 5 6.57142857 5 8 10 C7.4225 9.34 6.845 8.68 6.25 8 C4.00346023 5.55709077 4.00346023 5.55709077 0 6 C0 4.02 0 2.04 0 0 Z " fill="#D89738" transform="translate(248,220)"/>
<path d="M0 0 C3.99455527 0.61454696 6.74466336 2.70646737 10 5 C7 6 7 6 3.875 4.75 C1 3 1 3 0 0 Z " fill="#DB932D" transform="translate(238,214)"/>
<path d="M0 0 C3.9492568 0.55105909 7.34920174 1.38935371 11 3 C11 3.33 11 3.66 11 4 C8.03 4 5.06 4 2 4 C2 3.01 2 2.02 2 1 C1.34 0.67 0.68 0.34 0 0 Z " fill="#1C2E41" transform="translate(247,102)"/>
<path d="M0 0 C1.32 0.33 2.64 0.66 4 1 C4 2.98 4 4.96 4 7 C4.66 7.33 5.32 7.66 6 8 C5.01 8 4.02 8 3 8 C2 7 2 7 1.9375 4.4375 C1.958125 3.633125 1.97875 2.82875 2 2 C1.34 2 0.68 2 0 2 C0 1.34 0 0.68 0 0 Z " fill="#E6E1DC" transform="translate(209,251)"/>
<path d="M0 0 C0.66 0.33 1.32 0.66 2 1 C2 1.66 2 2.32 2 3 C3.32 3.33 4.64 3.66 6 4 C6.33 5.32 6.66 6.64 7 8 C4.03 6.02 1.06 4.04 -2 2 C-1.34 1.34 -0.68 0.68 0 0 Z " fill="#DD9630" transform="translate(234,220)"/>
<path d="M0 0 C0 0.66 0 1.32 0 2 C-4.38461538 5 -4.38461538 5 -7 5 C-7.33 5.99 -7.66 6.98 -8 8 C-8.99 7.67 -9.98 7.34 -11 7 C-9.54634731 5.82750647 -8.08692581 4.66216184 -6.625 3.5 C-5.40683594 2.52546875 -5.40683594 2.52546875 -4.1640625 1.53125 C-2 0 -2 0 0 0 Z " fill="#D89F4B" transform="translate(213,214)"/>
<path d="M0 0 C1.32 0.99 2.64 1.98 4 3 C4.33 2.01 4.66 1.02 5 0 C5 1.98 5 3.96 5 6 C0.25 4.125 0.25 4.125 -2 3 C-2 2.34 -2 1.68 -2 1 C-1.34 0.67 -0.68 0.34 0 0 Z " fill="#1B3146" transform="translate(246,205)"/>
<path d="M0 0 C0.721875 0.45375 1.44375 0.9075 2.1875 1.375 C4.74894081 2.85494358 7.23277989 3.97217539 10 5 C10 5.33 10 5.66 10 6 C6.53058454 5.54177532 3.32604951 5.10868317 0 4 C0 2.68 0 1.36 0 0 Z " fill="#E9DAC6" transform="translate(241,158)"/>
<path d="M0 0 C0.99 0 1.98 0 3 0 C3.66 2.64 4.32 5.28 5 8 C2.5 6.25 2.5 6.25 0 4 C0 2.68 0 1.36 0 0 Z " fill="#DC902D" transform="translate(223,135)"/>
<path d="M0 0 C-1.28813342 0.83878455 -2.58063256 1.67086783 -3.875 2.5 C-4.59429687 2.9640625 -5.31359375 3.428125 -6.0546875 3.90625 C-8 5 -8 5 -10 5 C-8.94958421 2.13522966 -8.29875437 1.16086774 -5.5625 -0.3125 C-3 -1 -3 -1 0 0 Z " fill="#15263B" transform="translate(93,111)"/>
<path d="M0 0 C2.93200474 2.85276137 5.64315404 5.65079784 8 9 C7.401875 8.690625 6.80375 8.38125 6.1875 8.0625 C3.91043228 6.89790296 3.91043228 6.89790296 1 6 C0.67 4.02 0.34 2.04 0 0 Z " fill="#D78F2C" transform="translate(264,271)"/>
<path d="M0 0 C0.66 0 1.32 0 2 0 C2.625 2.3125 2.625 2.3125 3 5 C2.01 6.485 2.01 6.485 1 8 C0.34 8 -0.32 8 -1 8 C-0.67 5.36 -0.34 2.72 0 0 Z " fill="#182844" transform="translate(196,209)"/>
<path d="M0 0 C0.99 0.33 1.98 0.66 3 1 C2.67 1.66 2.34 2.32 2 3 C1.34 3 0.68 3 0 3 C0 3.66 0 4.32 0 5 C-1.65 5.33 -3.3 5.66 -5 6 C-3.35 4.02 -1.7 2.04 0 0 Z " fill="#E6D7BC" transform="translate(193,182)"/>
<path d="M0 0 C0.66 0.33 1.32 0.66 2 1 C1.360625 1.103125 0.72125 1.20625 0.0625 1.3125 C-0.618125 1.539375 -1.29875 1.76625 -2 2 C-2.33 2.99 -2.66 3.98 -3 5 C-5.31 4.67 -7.62 4.34 -10 4 C-10 3.67 -10 3.34 -10 3 C-8.906875 2.690625 -7.81375 2.38125 -6.6875 2.0625 C-4.44592006 1.41662103 -2.2130649 0.7376883 0 0 Z " fill="#2E4257" transform="translate(190,303)"/>
<path d="M0 0 C1.31611677 0.95336021 2.62778961 1.91285774 3.9375 2.875 C4.66839844 3.40867187 5.39929688 3.94234375 6.15234375 4.4921875 C8 6 8 6 9 8 C5.41209425 7.70100785 4.21833224 7.23013399 1.6875 4.5625 C0 2 0 2 0 0 Z " fill="#D89034" transform="translate(255,263)"/>
<path d="M0 0 C2.64 0 5.28 0 8 0 C8 1.32 8 2.64 8 4 C7.01 3.67 6.02 3.34 5 3 C5 2.34 5 1.68 5 1 C3.35 1.66 1.7 2.32 0 3 C0 2.01 0 1.02 0 0 Z " fill="#DB9639" transform="translate(236,155)"/>
<path d="M0 0 C2.52259061 1.97420135 2.9929808 2.96745642 3.6875 6.1875 C3.790625 7.115625 3.89375 8.04375 4 9 C3.67 8.34 3.34 7.68 3 7 C2.01 7 1.02 7 0 7 C0 4.69 0 2.38 0 0 Z " fill="#32475C" transform="translate(156,134)"/>
<path d="M0 0 C1.32 0.66 2.64 1.32 4 2 C2.625 4 2.625 4 1 6 C0.34 6 -0.32 6 -1 6 C-0.67 4.02 -0.34 2.04 0 0 Z " fill="#DE9225" transform="translate(130,218)"/>
<path d="M0 0 C-1.32 0.99 -2.64 1.98 -4 3 C-5.32 2.34 -6.64 1.68 -8 1 C-4.93251126 -0.86240388 -3.40254489 -1.2151946 0 0 Z " fill="#1C2F44" transform="translate(156,90)"/>
<path d="M0 0 C3.73884332 2.65654657 5.64978174 4.58110387 7 9 C3.26115668 6.34345343 1.35021826 4.41889613 0 0 Z " fill="#0A1B30" transform="translate(106,271)"/>
<path d="M0 0 C0.99 0.66 1.98 1.32 3 2 C2.34 3.32 1.68 4.64 1 6 C-0.32 4.68 -1.64 3.36 -3 2 C-2.01 1.34 -1.02 0.68 0 0 Z " fill="#CEDAEA" transform="translate(117,261)"/>
<path d="M0 0 C0.66 0 1.32 0 2 0 C1.67 2.64 1.34 5.28 1 8 C0.01 8 -0.98 8 -2 8 C-1.34 5.36 -0.68 2.72 0 0 Z " fill="#0E1F33" transform="translate(276,228)"/>
<path d="M0 0 C0.99 0 1.98 0 3 0 C2.67 3.3 2.34 6.6 2 10 C1.67 10 1.34 10 1 10 C0.67 6.7 0.34 3.4 0 0 Z " fill="#E2E6E8" transform="translate(259,232)"/>
<path d="M0 0 C2.31 0.66 4.62 1.32 7 2 C7.33 3.65 7.66 5.3 8 7 C6.66382648 6.02471263 5.3311249 5.04466681 4 4.0625 C3.2575 3.51722656 2.515 2.97195312 1.75 2.41015625 C1.1725 1.94480469 0.595 1.47945312 0 1 C0 0.67 0 0.34 0 0 Z " fill="#EDD7C3" transform="translate(244,216)"/>
</svg>
